<svg xmlns="http://www.w3.org/2000/svg" xmlns:xlink="http://www.w3.org/1999/xlink" width="500" zoomAndPan="magnify" viewBox="0 0 375 374.999991" height="500" preserveAspectRatio="xMidYMid meet" version="1.0"><defs><g/></defs><g fill="#000000" fill-opacity="1"><g transform="translate(30.584824, 177.729206)"><g><path d="M -2.625 4.921875 C -3.144531 4.921875 -3.546875 4.863281 -3.828125 4.75 C -4.117188 4.644531 -4.265625 4.398438 -4.265625 4.015625 C -4.265625 3.578125 -4.066406 3.148438 -3.671875 2.734375 C -3.273438 2.328125 -2.71875 2.125 -2 2.125 C -1.425781 2.125 -0.847656 2.171875 -0.265625 2.265625 C 0.316406 2.367188 1.101562 2.53125 2.09375 2.75 C 2.414062 2.53125 2.738281 2.234375 3.0625 1.859375 C 3.394531 1.492188 3.675781 0.925781 3.90625 0.15625 C 4.144531 -0.601562 4.265625 -1.664062 4.265625 -3.03125 L 4.265625 -23.46875 C 4.265625 -25.15625 4.144531 -26.304688 3.90625 -26.921875 C 3.675781 -27.535156 3.25 -27.941406 2.625 -28.140625 L 2.625 -28.671875 L 9.21875 -28.671875 L 9.21875 -28.140625 C 8.582031 -27.941406 8.148438 -27.535156 7.921875 -26.921875 C 7.691406 -26.304688 7.578125 -25.15625 7.578125 -23.46875 L 7.578125 -8.03125 C 7.578125 -5.40625 7.09375 -3.125 6.125 -1.1875 C 5.15625 0.75 3.898438 2.25 2.359375 3.3125 C 0.816406 4.382812 -0.84375 4.921875 -2.625 4.921875 Z M -2.625 4.921875 "/></g></g></g><g fill="#000000" fill-opacity="1"><g transform="translate(49.298431, 177.729206)"><g><path d="M 14.78125 0.40625 C 13.3125 0.40625 11.882812 0.21875 10.5 -0.15625 C 9.125 -0.539062 7.890625 -1.15625 6.796875 -2 C 5.703125 -2.851562 4.828125 -3.984375 4.171875 -5.390625 C 3.515625 -6.796875 3.1875 -8.519531 3.1875 -10.5625 L 3.1875 -23.46875 C 3.1875 -25.15625 3.070312 -26.304688 2.84375 -26.921875 C 2.613281 -27.535156 2.1875 -27.941406 1.5625 -28.140625 L 1.5625 -28.671875 L 8.1875 -28.671875 L 8.1875 -28.140625 C 7.59375 -27.941406 7.171875 -27.535156 6.921875 -26.921875 C 6.671875 -26.304688 6.546875 -25.15625 6.546875 -23.46875 L 6.546875 -10.8125 C 6.546875 -8.269531 6.96875 -6.238281 7.8125 -4.71875 C 8.664062 -3.207031 9.816406 -2.117188 11.265625 -1.453125 C 12.710938 -0.785156 14.320312 -0.453125 16.09375 -0.453125 C 16.96875 -0.453125 17.878906 -0.613281 18.828125 -0.9375 C 19.785156 -1.269531 20.679688 -1.832031 21.515625 -2.625 C 22.347656 -3.414062 23.023438 -4.476562 23.546875 -5.8125 C 24.066406 -7.15625 24.328125 -8.820312 24.328125 -10.8125 L 24.328125 -21.828125 C 24.328125 -23.378906 24.21875 -24.585938 24 -25.453125 C 23.78125 -26.316406 23.460938 -26.9375 23.046875 -27.3125 C 22.640625 -27.695312 22.140625 -27.972656 21.546875 -28.140625 L 21.546875 -28.671875 L 26.625 -28.671875 L 26.625 -28.140625 C 26.019531 -27.941406 25.59375 -27.535156 25.34375 -26.921875 C 25.101562 -26.304688 24.984375 -25.15625 24.984375 -23.46875 L 24.984375 -10.9375 C 24.984375 -8.207031 24.523438 -6.007812 23.609375 -4.34375 C 22.691406 -2.675781 21.46875 -1.46875 19.9375 -0.71875 C 18.414062 0.03125 16.695312 0.40625 14.78125 0.40625 Z M 14.78125 0.40625 "/></g></g></g><g fill="#000000" fill-opacity="1"><g transform="translate(84.511604, 177.729206)"><g><path d="M 11.671875 0.40625 C 9.515625 0.40625 7.578125 0.09375 5.859375 -0.53125 C 4.140625 -1.15625 2.800781 -1.8125 1.84375 -2.5 L 1.640625 -8.1875 L 2.09375 -8.265625 C 2.632812 -6.847656 3.347656 -5.53125 4.234375 -4.3125 C 5.117188 -3.101562 6.242188 -2.132812 7.609375 -1.40625 C 8.984375 -0.6875 10.609375 -0.328125 12.484375 -0.328125 C 13.578125 -0.328125 14.585938 -0.550781 15.515625 -1 C 16.441406 -1.445312 17.1875 -2.082031 17.75 -2.90625 C 18.3125 -3.726562 18.59375 -4.6875 18.59375 -5.78125 C 18.59375 -6.8125 18.316406 -7.707031 17.765625 -8.46875 C 17.222656 -9.238281 16.515625 -9.910156 15.640625 -10.484375 C 14.765625 -11.054688 13.84375 -11.550781 12.875 -11.96875 C 11.90625 -12.394531 10.984375 -12.785156 10.109375 -13.140625 C 8.503906 -13.796875 7.109375 -14.457031 5.921875 -15.125 C 4.734375 -15.800781 3.816406 -16.609375 3.171875 -17.546875 C 2.535156 -18.492188 2.21875 -19.6875 2.21875 -21.125 C 2.21875 -22.738281 2.628906 -24.125 3.453125 -25.28125 C 4.285156 -26.445312 5.453125 -27.347656 6.953125 -27.984375 C 8.460938 -28.628906 10.210938 -28.953125 12.203125 -28.953125 C 14.054688 -28.953125 15.648438 -28.742188 16.984375 -28.328125 C 18.328125 -27.921875 19.394531 -27.5 20.1875 -27.0625 L 20.359375 -22.3125 L 19.9375 -22.203125 C 19.175781 -23.972656 18.066406 -25.429688 16.609375 -26.578125 C 15.148438 -27.722656 13.242188 -28.296875 10.890625 -28.296875 C 9.796875 -28.296875 8.773438 -28.082031 7.828125 -27.65625 C 6.890625 -27.238281 6.140625 -26.632812 5.578125 -25.84375 C 5.023438 -25.050781 4.75 -24.066406 4.75 -22.890625 C 4.75 -21.929688 4.976562 -21.097656 5.4375 -20.390625 C 5.90625 -19.679688 6.519531 -19.066406 7.28125 -18.546875 C 8.050781 -18.035156 8.882812 -17.582031 9.78125 -17.1875 C 10.6875 -16.789062 11.578125 -16.410156 12.453125 -16.046875 C 13.984375 -15.453125 15.414062 -14.8125 16.75 -14.125 C 18.082031 -13.445312 19.164062 -12.613281 20 -11.625 C 20.832031 -10.644531 21.25 -9.378906 21.25 -7.828125 C 21.25 -6.128906 20.785156 -4.660156 19.859375 -3.421875 C 18.929688 -2.179688 17.738281 -1.234375 16.28125 -0.578125 C 14.820312 0.078125 13.285156 0.40625 11.671875 0.40625 Z M 11.671875 0.40625 "/></g></g></g><g fill="#000000" fill-opacity="1"><g transform="translate(114.484221, 177.729206)"><g><path d="M 8.15625 0 L 8.15625 -0.53125 C 8.78125 -0.71875 9.207031 -1.125 9.4375 -1.75 C 9.664062 -2.382812 9.78125 -3.535156 9.78125 -5.203125 L 9.78125 -28.015625 L 7.78125 -28.015625 C 5.945312 -28.015625 4.550781 -27.726562 3.59375 -27.15625 C 2.644531 -26.582031 1.816406 -25.554688 1.109375 -24.078125 L 0.65625 -24.15625 L 0.90625 -28.671875 L 21.984375 -28.671875 L 22.234375 -24.15625 L 21.78125 -24.078125 C 21.101562 -25.554688 20.285156 -26.582031 19.328125 -27.15625 C 18.367188 -27.726562 16.960938 -28.015625 15.109375 -28.015625 L 13.1875 -28.015625 L 13.1875 -5.203125 C 13.1875 -3.535156 13.300781 -2.382812 13.53125 -1.75 C 13.769531 -1.125 14.203125 -0.71875 14.828125 -0.53125 L 14.828125 0 Z M 8.15625 0 "/></g></g></g><g fill="#000000" fill-opacity="1"><g transform="translate(144.825309, 177.729206)"><g><path d="M 2.09375 0 L 2.09375 -0.53125 C 2.71875 -0.71875 3.144531 -1.125 3.375 -1.75 C 3.613281 -2.382812 3.734375 -3.535156 3.734375 -5.203125 L 3.734375 -23.46875 C 3.734375 -25.15625 3.613281 -26.304688 3.375 -26.921875 C 3.144531 -27.535156 2.71875 -27.941406 2.09375 -28.140625 L 2.09375 -28.671875 L 8.71875 -28.671875 L 8.71875 -28.140625 C 8.09375 -27.941406 7.660156 -27.535156 7.421875 -26.921875 C 7.191406 -26.304688 7.078125 -25.15625 7.078125 -23.46875 L 7.078125 -5.203125 C 7.078125 -3.535156 7.191406 -2.382812 7.421875 -1.75 C 7.660156 -1.125 8.09375 -0.71875 8.71875 -0.53125 L 8.71875 0 Z M 2.09375 0 "/></g></g></g><g fill="#000000" fill-opacity="1"><g transform="translate(163.047614, 177.729206)"><g><path d="M 17.5625 0.40625 C 14.425781 0.40625 11.703125 -0.148438 9.390625 -1.265625 C 7.085938 -2.390625 5.300781 -4.007812 4.03125 -6.125 C 2.757812 -8.238281 2.125 -10.785156 2.125 -13.765625 C 2.125 -15.941406 2.519531 -17.953125 3.3125 -19.796875 C 4.101562 -21.640625 5.226562 -23.25 6.6875 -24.625 C 8.15625 -26.007812 9.890625 -27.078125 11.890625 -27.828125 C 13.898438 -28.578125 16.109375 -28.953125 18.515625 -28.953125 C 19.679688 -28.953125 20.875 -28.847656 22.09375 -28.640625 C 23.3125 -28.441406 24.425781 -28.191406 25.4375 -27.890625 C 26.445312 -27.585938 27.207031 -27.257812 27.71875 -26.90625 L 27.890625 -22.03125 L 27.484375 -21.953125 C 26.691406 -23.804688 25.375 -25.304688 23.53125 -26.453125 C 21.6875 -27.597656 19.550781 -28.171875 17.125 -28.171875 C 14.96875 -28.171875 13.015625 -27.691406 11.265625 -26.734375 C 9.515625 -25.785156 8.125 -24.367188 7.09375 -22.484375 C 6.070312 -20.597656 5.5625 -18.265625 5.5625 -15.484375 C 5.5625 -13.566406 5.84375 -11.707031 6.40625 -9.90625 C 6.96875 -8.101562 7.804688 -6.484375 8.921875 -5.046875 C 10.046875 -3.617188 11.425781 -2.488281 13.0625 -1.65625 C 14.695312 -0.820312 16.582031 -0.40625 18.71875 -0.40625 C 20.925781 -0.40625 22.851562 -0.976562 24.5 -2.125 C 26.15625 -3.269531 27.378906 -4.953125 28.171875 -7.171875 L 28.625 -7.125 L 27.96875 -1.796875 C 27.007812 -1.285156 25.609375 -0.789062 23.765625 -0.3125 C 21.929688 0.164062 19.863281 0.40625 17.5625 0.40625 Z M 17.5625 0.40625 "/></g></g></g><g fill="#000000" fill-opacity="1"><g transform="translate(200.799168, 177.729206)"><g><path d="M 2.09375 0 L 2.09375 -0.53125 C 2.71875 -0.71875 3.144531 -1.125 3.375 -1.75 C 3.613281 -2.382812 3.734375 -3.535156 3.734375 -5.203125 L 3.734375 -23.46875 C 3.734375 -25.15625 3.613281 -26.304688 3.375 -26.921875 C 3.144531 -27.535156 2.71875 -27.941406 2.09375 -28.140625 L 2.09375 -28.671875 L 21.125 -28.671875 L 21.578125 -23.34375 L 21.125 -23.21875 C 20.414062 -25.019531 19.425781 -26.273438 18.15625 -26.984375 C 16.894531 -27.691406 15.210938 -28.046875 13.109375 -28.046875 L 7.078125 -28.046875 L 7.078125 -15.640625 L 12.328125 -15.640625 C 13.878906 -15.640625 15.082031 -15.742188 15.9375 -15.953125 C 16.800781 -16.160156 17.429688 -16.472656 17.828125 -16.890625 C 18.222656 -17.316406 18.503906 -17.828125 18.671875 -18.421875 L 19.171875 -18.421875 L 19.171875 -12.25 L 18.671875 -12.25 C 18.503906 -12.875 18.222656 -13.390625 17.828125 -13.796875 C 17.429688 -14.210938 16.800781 -14.519531 15.9375 -14.71875 C 15.082031 -14.925781 13.878906 -15.03125 12.328125 -15.03125 L 7.078125 -15.03125 L 7.078125 -2.453125 C 7.078125 -1.222656 7.691406 -0.609375 8.921875 -0.609375 L 14.25 -0.609375 C 16.21875 -0.609375 17.84375 -0.945312 19.125 -1.625 C 20.40625 -2.3125 21.414062 -3.613281 22.15625 -5.53125 L 22.609375 -5.453125 L 22.28125 0 Z M 2.09375 0 "/></g></g></g><g fill="#000000" fill-opacity="1"><g transform="translate(232.327564, 177.729206)"><g/></g></g><g fill="#000000" fill-opacity="1"><g transform="translate(248.339022, 177.729206)"><g><path d="M 2.09375 0 L 2.09375 -0.53125 C 2.71875 -0.71875 3.144531 -1.125 3.375 -1.75 C 3.613281 -2.382812 3.734375 -3.535156 3.734375 -5.203125 L 3.734375 -23.46875 C 3.734375 -25.15625 3.613281 -26.304688 3.375 -26.921875 C 3.144531 -27.535156 2.71875 -27.941406 2.09375 -28.140625 L 2.09375 -28.671875 L 21.375 -28.671875 L 21.75 -24.359375 L 21.296875 -24.25 C 20.609375 -25.613281 19.757812 -26.582031 18.75 -27.15625 C 17.738281 -27.726562 16.265625 -28.015625 14.328125 -28.015625 L 7.078125 -28.015625 L 7.078125 -16.015625 L 11.953125 -16.015625 C 13.515625 -16.015625 14.722656 -16.113281 15.578125 -16.3125 C 16.441406 -16.519531 17.070312 -16.828125 17.46875 -17.234375 C 17.863281 -17.648438 18.144531 -18.15625 18.3125 -18.75 L 18.796875 -18.75 L 18.796875 -12.53125 L 18.3125 -12.53125 C 18.144531 -13.15625 17.863281 -13.671875 17.46875 -14.078125 C 17.070312 -14.492188 16.441406 -14.8125 15.578125 -15.03125 C 14.722656 -15.25 13.515625 -15.359375 11.953125 -15.359375 L 7.078125 -15.359375 L 7.078125 -5.203125 C 7.078125 -3.535156 7.191406 -2.382812 7.421875 -1.75 C 7.660156 -1.125 8.09375 -0.71875 8.71875 -0.53125 L 8.71875 0 Z M 2.09375 0 "/></g></g></g><g fill="#000000" fill-opacity="1"><g transform="translate(278.639173, 177.729206)"><g><path d="M 16.703125 0.40625 C 14.960938 0.40625 13.226562 0.113281 11.5 -0.46875 C 9.78125 -1.050781 8.210938 -1.953125 6.796875 -3.171875 C 5.378906 -4.390625 4.242188 -5.925781 3.390625 -7.78125 C 2.546875 -9.632812 2.125 -11.832031 2.125 -14.375 C 2.125 -17.1875 2.738281 -19.691406 3.96875 -21.890625 C 5.195312 -24.085938 6.90625 -25.820312 9.09375 -27.09375 C 11.28125 -28.363281 13.816406 -29 16.703125 -29 C 18.421875 -29 20.140625 -28.695312 21.859375 -28.09375 C 23.585938 -27.488281 25.15625 -26.578125 26.5625 -25.359375 C 27.96875 -24.148438 29.09375 -22.617188 29.9375 -20.765625 C 30.78125 -18.910156 31.203125 -16.722656 31.203125 -14.203125 C 31.203125 -11.671875 30.78125 -9.488281 29.9375 -7.65625 C 29.09375 -5.832031 27.957031 -4.316406 26.53125 -3.109375 C 25.113281 -1.910156 23.550781 -1.023438 21.84375 -0.453125 C 20.132812 0.117188 18.421875 0.40625 16.703125 0.40625 Z M 5.40625 -16.75 C 5.488281 -14.695312 5.863281 -12.707031 6.53125 -10.78125 C 7.195312 -8.863281 8.109375 -7.140625 9.265625 -5.609375 C 10.429688 -4.078125 11.789062 -2.859375 13.34375 -1.953125 C 14.90625 -1.054688 16.597656 -0.609375 18.421875 -0.609375 C 20.609375 -0.609375 22.425781 -1.085938 23.875 -2.046875 C 25.320312 -3.003906 26.394531 -4.304688 27.09375 -5.953125 C 27.789062 -7.609375 28.097656 -9.460938 28.015625 -11.515625 C 27.929688 -13.640625 27.550781 -15.691406 26.875 -17.671875 C 26.207031 -19.648438 25.300781 -21.414062 24.15625 -22.96875 C 23.007812 -24.53125 21.660156 -25.765625 20.109375 -26.671875 C 18.554688 -27.585938 16.863281 -28.046875 15.03125 -28.046875 C 12.957031 -28.046875 11.1875 -27.566406 9.71875 -26.609375 C 8.257812 -25.660156 7.15625 -24.335938 6.40625 -22.640625 C 5.65625 -20.953125 5.320312 -18.988281 5.40625 -16.75 Z M 5.40625 -16.75 "/></g></g></g><g fill="#000000" fill-opacity="1"><g transform="translate(319.338539, 177.729206)"><g><path d="M 22.9375 0.28125 C 21.894531 0.28125 21.070312 0.03125 20.46875 -0.46875 C 19.875 -0.976562 19.347656 -1.71875 18.890625 -2.6875 C 18.441406 -3.65625 17.921875 -4.847656 17.328125 -6.265625 C 16.722656 -7.679688 16.210938 -8.921875 15.796875 -9.984375 C 15.390625 -11.054688 14.945312 -11.945312 14.46875 -12.65625 C 14 -13.363281 13.394531 -13.894531 12.65625 -14.25 C 11.914062 -14.601562 10.929688 -14.78125 9.703125 -14.78125 L 7.078125 -14.78125 L 7.078125 -5.203125 C 7.078125 -3.535156 7.191406 -2.382812 7.421875 -1.75 C 7.660156 -1.125 8.09375 -0.71875 8.71875 -0.53125 L 8.71875 0 L 2.09375 0 L 2.09375 -0.53125 C 2.71875 -0.71875 3.144531 -1.125 3.375 -1.75 C 3.613281 -2.382812 3.734375 -3.535156 3.734375 -5.203125 L 3.734375 -23.46875 C 3.734375 -25.15625 3.613281 -26.304688 3.375 -26.921875 C 3.144531 -27.535156 2.71875 -27.941406 2.09375 -28.140625 L 2.09375 -28.671875 L 10.15625 -28.671875 C 12.9375 -28.671875 15.101562 -28.390625 16.65625 -27.828125 C 18.21875 -27.265625 19.316406 -26.503906 19.953125 -25.546875 C 20.597656 -24.597656 20.921875 -23.507812 20.921875 -22.28125 C 20.921875 -20.363281 20.238281 -18.726562 18.875 -17.375 C 17.507812 -16.03125 15.488281 -15.207031 12.8125 -14.90625 C 14.070312 -14.738281 15.097656 -14.457031 15.890625 -14.0625 C 16.679688 -13.664062 17.335938 -13.132812 17.859375 -12.46875 C 18.378906 -11.800781 18.84375 -10.988281 19.25 -10.03125 C 19.65625 -9.070312 20.101562 -7.96875 20.59375 -6.71875 C 21.25 -5.082031 21.800781 -3.8125 22.25 -2.90625 C 22.707031 -2.007812 23.125 -1.375 23.5 -1 C 23.882812 -0.632812 24.3125 -0.453125 24.78125 -0.453125 C 24.914062 -0.453125 25.03125 -0.453125 25.125 -0.453125 C 25.21875 -0.453125 25.320312 -0.460938 25.4375 -0.484375 L 25.4375 0 C 25.132812 0.101562 24.742188 0.175781 24.265625 0.21875 C 23.785156 0.257812 23.34375 0.28125 22.9375 0.28125 Z M 7.078125 -15.390625 L 10.53125 -15.390625 C 12.875 -15.390625 14.613281 -15.941406 15.75 -17.046875 C 16.882812 -18.160156 17.453125 -19.59375 17.453125 -21.34375 C 17.453125 -22.5625 17.171875 -23.675781 16.609375 -24.6875 C 16.046875 -25.695312 15.144531 -26.507812 13.90625 -27.125 C 12.664062 -27.738281 11.035156 -28.046875 9.015625 -28.046875 C 8.710938 -28.046875 8.394531 -28.039062 8.0625 -28.03125 C 7.738281 -28.019531 7.410156 -28 7.078125 -27.96875 Z M 7.078125 -15.390625 "/></g></g></g><g fill="#000000" fill-opacity="1"><g transform="translate(19.429209, 234.438809)"><g><path d="M 11.671875 0.40625 C 9.515625 0.40625 7.578125 0.09375 5.859375 -0.53125 C 4.140625 -1.15625 2.800781 -1.8125 1.84375 -2.5 L 1.640625 -8.1875 L 2.09375 -8.265625 C 2.632812 -6.847656 3.347656 -5.53125 4.234375 -4.3125 C 5.117188 -3.101562 6.242188 -2.132812 7.609375 -1.40625 C 8.984375 -0.6875 10.609375 -0.328125 12.484375 -0.328125 C 13.578125 -0.328125 14.585938 -0.550781 15.515625 -1 C 16.441406 -1.445312 17.1875 -2.082031 17.75 -2.90625 C 18.3125 -3.726562 18.59375 -4.6875 18.59375 -5.78125 C 18.59375 -6.8125 18.316406 -7.707031 17.765625 -8.46875 C 17.222656 -9.238281 16.515625 -9.910156 15.640625 -10.484375 C 14.765625 -11.054688 13.84375 -11.550781 12.875 -11.96875 C 11.90625 -12.394531 10.984375 -12.785156 10.109375 -13.140625 C 8.503906 -13.796875 7.109375 -14.457031 5.921875 -15.125 C 4.734375 -15.800781 3.816406 -16.609375 3.171875 -17.546875 C 2.535156 -18.492188 2.21875 -19.6875 2.21875 -21.125 C 2.21875 -22.738281 2.628906 -24.125 3.453125 -25.28125 C 4.285156 -26.445312 5.453125 -27.347656 6.953125 -27.984375 C 8.460938 -28.628906 10.210938 -28.953125 12.203125 -28.953125 C 14.054688 -28.953125 15.648438 -28.742188 16.984375 -28.328125 C 18.328125 -27.921875 19.394531 -27.5 20.1875 -27.0625 L 20.359375 -22.3125 L 19.9375 -22.203125 C 19.175781 -23.972656 18.066406 -25.429688 16.609375 -26.578125 C 15.148438 -27.722656 13.242188 -28.296875 10.890625 -28.296875 C 9.796875 -28.296875 8.773438 -28.082031 7.828125 -27.65625 C 6.890625 -27.238281 6.140625 -26.632812 5.578125 -25.84375 C 5.023438 -25.050781 4.75 -24.066406 4.75 -22.890625 C 4.75 -21.929688 4.976562 -21.097656 5.4375 -20.390625 C 5.90625 -19.679688 6.519531 -19.066406 7.28125 -18.546875 C 8.050781 -18.035156 8.882812 -17.582031 9.78125 -17.1875 C 10.6875 -16.789062 11.578125 -16.410156 12.453125 -16.046875 C 13.984375 -15.453125 15.414062 -14.8125 16.75 -14.125 C 18.082031 -13.445312 19.164062 -12.613281 20 -11.625 C 20.832031 -10.644531 21.25 -9.378906 21.25 -7.828125 C 21.25 -6.128906 20.785156 -4.660156 19.859375 -3.421875 C 18.929688 -2.179688 17.738281 -1.234375 16.28125 -0.578125 C 14.820312 0.078125 13.285156 0.40625 11.671875 0.40625 Z M 11.671875 0.40625 "/></g></g></g><g fill="#000000" fill-opacity="1"><g transform="translate(49.401827, 234.438809)"><g><path d="M -0.703125 0 L -0.703125 -0.53125 C -0.128906 -0.71875 0.425781 -1.09375 0.96875 -1.65625 C 1.519531 -2.21875 2.113281 -3.273438 2.75 -4.828125 L 10.8125 -24.8125 C 11.0625 -25.46875 11.035156 -26.113281 10.734375 -26.75 L 10.359375 -27.609375 L 13.4375 -29 L 23.5 -4.796875 C 24.132812 -3.265625 24.703125 -2.21875 25.203125 -1.65625 C 25.710938 -1.09375 26.1875 -0.71875 26.625 -0.53125 L 26.625 0 L 20.265625 0 L 20.265625 -0.53125 C 20.898438 -0.71875 21.160156 -1.09375 21.046875 -1.65625 C 20.941406 -2.21875 20.5625 -3.265625 19.90625 -4.796875 L 17.40625 -10.8125 L 5.859375 -10.8125 L 3.4375 -4.828125 C 2.40625 -2.234375 2.570312 -0.800781 3.9375 -0.53125 L 3.9375 0 Z M 6.109375 -11.421875 L 17.15625 -11.421875 L 11.546875 -24.90625 Z M 6.109375 -11.421875 "/></g></g></g><g fill="#000000" fill-opacity="1"><g transform="translate(83.059197, 234.438809)"><g><path d="M 22.9375 0.28125 C 21.894531 0.28125 21.070312 0.03125 20.46875 -0.46875 C 19.875 -0.976562 19.347656 -1.71875 18.890625 -2.6875 C 18.441406 -3.65625 17.921875 -4.847656 17.328125 -6.265625 C 16.722656 -7.679688 16.210938 -8.921875 15.796875 -9.984375 C 15.390625 -11.054688 14.945312 -11.945312 14.46875 -12.65625 C 14 -13.363281 13.394531 -13.894531 12.65625 -14.25 C 11.914062 -14.601562 10.929688 -14.78125 9.703125 -14.78125 L 7.078125 -14.78125 L 7.078125 -5.203125 C 7.078125 -3.535156 7.191406 -2.382812 7.421875 -1.75 C 7.660156 -1.125 8.09375 -0.71875 8.71875 -0.53125 L 8.71875 0 L 2.09375 0 L 2.09375 -0.53125 C 2.71875 -0.71875 3.144531 -1.125 3.375 -1.75 C 3.613281 -2.382812 3.734375 -3.535156 3.734375 -5.203125 L 3.734375 -23.46875 C 3.734375 -25.15625 3.613281 -26.304688 3.375 -26.921875 C 3.144531 -27.535156 2.71875 -27.941406 2.09375 -28.140625 L 2.09375 -28.671875 L 10.15625 -28.671875 C 12.9375 -28.671875 15.101562 -28.390625 16.65625 -27.828125 C 18.21875 -27.265625 19.316406 -26.503906 19.953125 -25.546875 C 20.597656 -24.597656 20.921875 -23.507812 20.921875 -22.28125 C 20.921875 -20.363281 20.238281 -18.726562 18.875 -17.375 C 17.507812 -16.03125 15.488281 -15.207031 12.8125 -14.90625 C 14.070312 -14.738281 15.097656 -14.457031 15.890625 -14.0625 C 16.679688 -13.664062 17.335938 -13.132812 17.859375 -12.46875 C 18.378906 -11.800781 18.84375 -10.988281 19.25 -10.03125 C 19.65625 -9.070312 20.101562 -7.96875 20.59375 -6.71875 C 21.25 -5.082031 21.800781 -3.8125 22.25 -2.90625 C 22.707031 -2.007812 23.125 -1.375 23.5 -1 C 23.882812 -0.632812 24.3125 -0.453125 24.78125 -0.453125 C 24.914062 -0.453125 25.03125 -0.453125 25.125 -0.453125 C 25.21875 -0.453125 25.320312 -0.460938 25.4375 -0.484375 L 25.4375 0 C 25.132812 0.101562 24.742188 0.175781 24.265625 0.21875 C 23.785156 0.257812 23.34375 0.28125 22.9375 0.28125 Z M 7.078125 -15.390625 L 10.53125 -15.390625 C 12.875 -15.390625 14.613281 -15.941406 15.75 -17.046875 C 16.882812 -18.160156 17.453125 -19.59375 17.453125 -21.34375 C 17.453125 -22.5625 17.171875 -23.675781 16.609375 -24.6875 C 16.046875 -25.695312 15.144531 -26.507812 13.90625 -27.125 C 12.664062 -27.738281 11.035156 -28.046875 9.015625 -28.046875 C 8.710938 -28.046875 8.394531 -28.039062 8.0625 -28.03125 C 7.738281 -28.019531 7.410156 -28 7.078125 -27.96875 Z M 7.078125 -15.390625 "/></g></g></g><g fill="#000000" fill-opacity="1"><g transform="translate(115.529261, 234.438809)"><g><path d="M -0.703125 0 L -0.703125 -0.53125 C -0.128906 -0.71875 0.425781 -1.09375 0.96875 -1.65625 C 1.519531 -2.21875 2.113281 -3.273438 2.75 -4.828125 L 10.8125 -24.8125 C 11.0625 -25.46875 11.035156 -26.113281 10.734375 -26.75 L 10.359375 -27.609375 L 13.4375 -29 L 23.5 -4.796875 C 24.132812 -3.265625 24.703125 -2.21875 25.203125 -1.65625 C 25.710938 -1.09375 26.1875 -0.71875 26.625 -0.53125 L 26.625 0 L 20.265625 0 L 20.265625 -0.53125 C 20.898438 -0.71875 21.160156 -1.09375 21.046875 -1.65625 C 20.941406 -2.21875 20.5625 -3.265625 19.90625 -4.796875 L 17.40625 -10.8125 L 5.859375 -10.8125 L 3.4375 -4.828125 C 2.40625 -2.234375 2.570312 -0.800781 3.9375 -0.53125 L 3.9375 0 Z M 6.109375 -11.421875 L 17.15625 -11.421875 L 11.546875 -24.90625 Z M 6.109375 -11.421875 "/></g></g></g><g fill="#000000" fill-opacity="1"><g transform="translate(149.186631, 234.438809)"><g/></g></g><g fill="#000000" fill-opacity="1"><g transform="translate(165.198089, 234.438809)"><g><path d="M 11.671875 0.40625 C 9.515625 0.40625 7.578125 0.09375 5.859375 -0.53125 C 4.140625 -1.15625 2.800781 -1.8125 1.84375 -2.5 L 1.640625 -8.1875 L 2.09375 -8.265625 C 2.632812 -6.847656 3.347656 -5.53125 4.234375 -4.3125 C 5.117188 -3.101562 6.242188 -2.132812 7.609375 -1.40625 C 8.984375 -0.6875 10.609375 -0.328125 12.484375 -0.328125 C 13.578125 -0.328125 14.585938 -0.550781 15.515625 -1 C 16.441406 -1.445312 17.1875 -2.082031 17.75 -2.90625 C 18.3125 -3.726562 18.59375 -4.6875 18.59375 -5.78125 C 18.59375 -6.8125 18.316406 -7.707031 17.765625 -8.46875 C 17.222656 -9.238281 16.515625 -9.910156 15.640625 -10.484375 C 14.765625 -11.054688 13.84375 -11.550781 12.875 -11.96875 C 11.90625 -12.394531 10.984375 -12.785156 10.109375 -13.140625 C 8.503906 -13.796875 7.109375 -14.457031 5.921875 -15.125 C 4.734375 -15.800781 3.816406 -16.609375 3.171875 -17.546875 C 2.535156 -18.492188 2.21875 -19.6875 2.21875 -21.125 C 2.21875 -22.738281 2.628906 -24.125 3.453125 -25.28125 C 4.285156 -26.445312 5.453125 -27.347656 6.953125 -27.984375 C 8.460938 -28.628906 10.210938 -28.953125 12.203125 -28.953125 C 14.054688 -28.953125 15.648438 -28.742188 16.984375 -28.328125 C 18.328125 -27.921875 19.394531 -27.5 20.1875 -27.0625 L 20.359375 -22.3125 L 19.9375 -22.203125 C 19.175781 -23.972656 18.066406 -25.429688 16.609375 -26.578125 C 15.148438 -27.722656 13.242188 -28.296875 10.890625 -28.296875 C 9.796875 -28.296875 8.773438 -28.082031 7.828125 -27.65625 C 6.890625 -27.238281 6.140625 -26.632812 5.578125 -25.84375 C 5.023438 -25.050781 4.75 -24.066406 4.75 -22.890625 C 4.75 -21.929688 4.976562 -21.097656 5.4375 -20.390625 C 5.90625 -19.679688 6.519531 -19.066406 7.28125 -18.546875 C 8.050781 -18.035156 8.882812 -17.582031 9.78125 -17.1875 C 10.6875 -16.789062 11.578125 -16.410156 12.453125 -16.046875 C 13.984375 -15.453125 15.414062 -14.8125 16.75 -14.125 C 18.082031 -13.445312 19.164062 -12.613281 20 -11.625 C 20.832031 -10.644531 21.25 -9.378906 21.25 -7.828125 C 21.25 -6.128906 20.785156 -4.660156 19.859375 -3.421875 C 18.929688 -2.179688 17.738281 -1.234375 16.28125 -0.578125 C 14.820312 0.078125 13.285156 0.40625 11.671875 0.40625 Z M 11.671875 0.40625 "/></g></g></g><g fill="#000000" fill-opacity="1"><g transform="translate(195.170706, 234.438809)"><g><path d="M -0.703125 0 L -0.703125 -0.53125 C -0.128906 -0.71875 0.425781 -1.09375 0.96875 -1.65625 C 1.519531 -2.21875 2.113281 -3.273438 2.75 -4.828125 L 10.8125 -24.8125 C 11.0625 -25.46875 11.035156 -26.113281 10.734375 -26.75 L 10.359375 -27.609375 L 13.4375 -29 L 23.5 -4.796875 C 24.132812 -3.265625 24.703125 -2.21875 25.203125 -1.65625 C 25.710938 -1.09375 26.1875 -0.71875 26.625 -0.53125 L 26.625 0 L 20.265625 0 L 20.265625 -0.53125 C 20.898438 -0.71875 21.160156 -1.09375 21.046875 -1.65625 C 20.941406 -2.21875 20.5625 -3.265625 19.90625 -4.796875 L 17.40625 -10.8125 L 5.859375 -10.8125 L 3.4375 -4.828125 C 2.40625 -2.234375 2.570312 -0.800781 3.9375 -0.53125 L 3.9375 0 Z M 6.109375 -11.421875 L 17.15625 -11.421875 L 11.546875 -24.90625 Z M 6.109375 -11.421875 "/></g></g></g><g fill="#000000" fill-opacity="1"><g transform="translate(228.828077, 234.438809)"><g><path d="M 2.09375 0 L 2.09375 -0.53125 C 2.71875 -0.71875 3.144531 -1.125 3.375 -1.75 C 3.613281 -2.382812 3.734375 -3.535156 3.734375 -5.203125 L 3.734375 -23.46875 C 3.734375 -25.15625 3.613281 -26.304688 3.375 -26.921875 C 3.144531 -27.535156 2.71875 -27.941406 2.09375 -28.140625 L 2.09375 -28.671875 L 8.71875 -28.671875 L 8.71875 -28.140625 C 8.09375 -27.941406 7.660156 -27.535156 7.421875 -26.921875 C 7.191406 -26.304688 7.078125 -25.15625 7.078125 -23.46875 L 7.078125 -2.5 C 7.078125 -1.269531 7.691406 -0.65625 8.921875 -0.65625 L 13.796875 -0.65625 C 15.765625 -0.65625 17.273438 -0.945312 18.328125 -1.53125 C 19.378906 -2.125 20.257812 -3.179688 20.96875 -4.703125 L 21.421875 -4.625 L 21.125 0 Z M 2.09375 0 "/></g></g></g><g fill="#000000" fill-opacity="1"><g transform="translate(258.473159, 234.438809)"><g><path d="M 2.09375 0 L 2.09375 -0.53125 C 2.71875 -0.71875 3.144531 -1.125 3.375 -1.75 C 3.613281 -2.382812 3.734375 -3.535156 3.734375 -5.203125 L 3.734375 -23.46875 C 3.734375 -25.15625 3.613281 -26.304688 3.375 -26.921875 C 3.144531 -27.535156 2.71875 -27.941406 2.09375 -28.140625 L 2.09375 -28.671875 L 21.125 -28.671875 L 21.578125 -23.34375 L 21.125 -23.21875 C 20.414062 -25.019531 19.425781 -26.273438 18.15625 -26.984375 C 16.894531 -27.691406 15.210938 -28.046875 13.109375 -28.046875 L 7.078125 -28.046875 L 7.078125 -15.640625 L 12.328125 -15.640625 C 13.878906 -15.640625 15.082031 -15.742188 15.9375 -15.953125 C 16.800781 -16.160156 17.429688 -16.472656 17.828125 -16.890625 C 18.222656 -17.316406 18.503906 -17.828125 18.671875 -18.421875 L 19.171875 -18.421875 L 19.171875 -12.25 L 18.671875 -12.25 C 18.503906 -12.875 18.222656 -13.390625 17.828125 -13.796875 C 17.429688 -14.210938 16.800781 -14.519531 15.9375 -14.71875 C 15.082031 -14.925781 13.878906 -15.03125 12.328125 -15.03125 L 7.078125 -15.03125 L 7.078125 -2.453125 C 7.078125 -1.222656 7.691406 -0.609375 8.921875 -0.609375 L 14.25 -0.609375 C 16.21875 -0.609375 17.84375 -0.945312 19.125 -1.625 C 20.40625 -2.3125 21.414062 -3.613281 22.15625 -5.53125 L 22.609375 -5.453125 L 22.28125 0 Z M 2.09375 0 "/></g></g></g><g fill="#000000" fill-opacity="1"><g transform="translate(290.001555, 234.438809)"><g><path d="M 2.09375 0 L 2.09375 -0.53125 C 2.71875 -0.71875 3.144531 -1.125 3.375 -1.75 C 3.613281 -2.382812 3.734375 -3.535156 3.734375 -5.203125 L 3.734375 -23.46875 C 3.734375 -25.15625 3.613281 -26.304688 3.375 -26.921875 C 3.144531 -27.535156 2.71875 -27.941406 2.09375 -28.140625 L 2.09375 -28.671875 L 21.125 -28.671875 L 21.578125 -23.34375 L 21.125 -23.21875 C 20.414062 -25.019531 19.425781 -26.273438 18.15625 -26.984375 C 16.894531 -27.691406 15.210938 -28.046875 13.109375 -28.046875 L 7.078125 -28.046875 L 7.078125 -15.640625 L 12.328125 -15.640625 C 13.878906 -15.640625 15.082031 -15.742188 15.9375 -15.953125 C 16.800781 -16.160156 17.429688 -16.472656 17.828125 -16.890625 C 18.222656 -17.316406 18.503906 -17.828125 18.671875 -18.421875 L 19.171875 -18.421875 L 19.171875 -12.25 L 18.671875 -12.25 C 18.503906 -12.875 18.222656 -13.390625 17.828125 -13.796875 C 17.429688 -14.210938 16.800781 -14.519531 15.9375 -14.71875 C 15.082031 -14.925781 13.878906 -15.03125 12.328125 -15.03125 L 7.078125 -15.03125 L 7.078125 -2.453125 C 7.078125 -1.222656 7.691406 -0.609375 8.921875 -0.609375 L 14.25 -0.609375 C 16.21875 -0.609375 17.84375 -0.945312 19.125 -1.625 C 20.40625 -2.3125 21.414062 -3.613281 22.15625 -5.53125 L 22.609375 -5.453125 L 22.28125 0 Z M 2.09375 0 "/></g></g></g><g fill="#000000" fill-opacity="1"><g transform="translate(321.529951, 234.438809)"><g><path d="M 2.046875 0 L 2.046875 -0.53125 C 2.671875 -0.71875 3.097656 -1.125 3.328125 -1.75 C 3.566406 -2.382812 3.6875 -3.535156 3.6875 -5.203125 L 3.6875 -21.828125 C 3.6875 -23.378906 3.585938 -24.585938 3.390625 -25.453125 C 3.203125 -26.316406 2.921875 -26.9375 2.546875 -27.3125 C 2.179688 -27.695312 1.726562 -27.972656 1.1875 -28.140625 L 1.1875 -28.671875 L 6.140625 -28.671875 L 16.828125 -11.015625 L 27.3125 -28.671875 L 31.9375 -28.671875 L 31.9375 -28.140625 C 31.394531 -27.972656 30.9375 -27.695312 30.5625 -27.3125 C 30.195312 -26.9375 29.921875 -26.316406 29.734375 -25.453125 C 29.546875 -24.585938 29.453125 -23.378906 29.453125 -21.828125 L 29.453125 -5.203125 C 29.453125 -3.535156 29.566406 -2.382812 29.796875 -1.75 C 30.023438 -1.125 30.453125 -0.71875 31.078125 -0.53125 L 31.078125 0 L 24.453125 0 L 24.453125 -0.53125 C 25.078125 -0.71875 25.503906 -1.125 25.734375 -1.75 C 25.972656 -2.382812 26.09375 -3.535156 26.09375 -5.203125 L 26.09375 -25.34375 L 15.6875 -7.78125 L 14.90625 -7.78125 L 4.421875 -25.015625 L 4.421875 -6.84375 C 4.421875 -5.28125 4.53125 -4.078125 4.75 -3.234375 C 4.96875 -2.390625 5.28125 -1.769531 5.6875 -1.375 C 6.101562 -0.976562 6.609375 -0.695312 7.203125 -0.53125 L 7.203125 0 Z M 2.046875 0 "/></g></g></g></svg>