<svg xmlns="http://www.w3.org/2000/svg" xmlns:xlink="http://www.w3.org/1999/xlink" width="500" zoomAndPan="magnify" viewBox="0 0 375 374.999991" height="500" preserveAspectRatio="xMidYMid meet" version="1.0"><defs><g/></defs><g fill="#000000" fill-opacity="1"><g transform="translate(78.823539, 218.575326)"><g><path d="M 26.875 -9.421875 C 26.925781 -9.304688 26.921875 -9.179688 26.859375 -9.046875 C 26.796875 -8.921875 26.707031 -8.835938 26.59375 -8.796875 C 26.570312 -8.773438 26.332031 -8.679688 25.875 -8.515625 C 25.425781 -8.347656 24.859375 -8.15625 24.171875 -7.9375 C 23.484375 -7.71875 22.738281 -7.515625 21.9375 -7.328125 C 21.132812 -7.140625 20.363281 -7.015625 19.625 -6.953125 C 18.382812 -6.953125 17.171875 -7.101562 15.984375 -7.40625 C 14.796875 -7.707031 13.585938 -8.066406 12.359375 -8.484375 C 11.910156 -8.617188 11.460938 -8.753906 11.015625 -8.890625 C 10.578125 -9.035156 10.101562 -9.164062 9.59375 -9.28125 C 8.53125 -8.207031 7.550781 -7.175781 6.65625 -6.1875 C 5.757812 -5.207031 4.71875 -4.332031 3.53125 -3.5625 C 3.195312 -3.351562 2.800781 -3.203125 2.34375 -3.109375 C 1.894531 -3.015625 1.492188 -3.0625 1.140625 -3.25 C 0.796875 -3.4375 0.613281 -3.816406 0.59375 -4.390625 C 0.519531 -5.328125 0.679688 -6.109375 1.078125 -6.734375 C 1.335938 -7.179688 1.617188 -7.644531 1.921875 -8.125 C 2.222656 -8.613281 2.570312 -9.054688 2.96875 -9.453125 C 3.082031 -9.578125 3.21875 -9.65625 3.375 -9.6875 C 3.539062 -9.71875 3.6875 -9.65625 3.8125 -9.5 C 3.988281 -9.3125 4.007812 -9.101562 3.875 -8.875 C 3.738281 -8.65625 3.578125 -8.453125 3.390625 -8.265625 C 3.148438 -7.960938 2.914062 -7.65625 2.6875 -7.34375 C 2.457031 -7.03125 2.25 -6.710938 2.0625 -6.390625 C 1.894531 -6.109375 1.773438 -5.789062 1.703125 -5.4375 C 1.640625 -5.09375 1.609375 -4.757812 1.609375 -4.4375 C 1.671875 -4.132812 1.84375 -4.003906 2.125 -4.046875 C 2.6875 -4.253906 3.195312 -4.546875 3.65625 -4.921875 C 4.125 -5.296875 4.582031 -5.703125 5.03125 -6.140625 C 5.539062 -6.628906 6.046875 -7.128906 6.546875 -7.640625 C 7.046875 -8.148438 7.609375 -8.734375 8.234375 -9.390625 C 7.585938 -9.367188 7.082031 -9.257812 6.71875 -9.0625 C 6.351562 -8.863281 6.160156 -8.75 6.140625 -8.71875 C 6.046875 -8.65625 5.925781 -8.632812 5.78125 -8.65625 C 5.644531 -8.675781 5.546875 -8.734375 5.484375 -8.828125 C 5.273438 -9.085938 5.296875 -9.320312 5.546875 -9.53125 C 5.566406 -9.550781 5.726562 -9.640625 6.03125 -9.796875 C 6.34375 -9.960938 6.757812 -10.113281 7.28125 -10.25 C 7.800781 -10.394531 8.421875 -10.429688 9.140625 -10.359375 C 9.953125 -11.179688 10.722656 -12.019531 11.453125 -12.875 C 12.191406 -13.738281 12.984375 -14.632812 13.828125 -15.5625 C 14.378906 -16.195312 14.945312 -16.820312 15.53125 -17.4375 C 16.113281 -18.050781 16.660156 -18.71875 17.171875 -19.4375 C 16.242188 -19.789062 15.265625 -19.957031 14.234375 -19.9375 C 11.984375 -19.863281 9.972656 -19.117188 8.203125 -17.703125 C 7.992188 -17.535156 7.800781 -17.351562 7.625 -17.15625 C 7.445312 -16.957031 7.28125 -16.765625 7.125 -16.578125 C 7.050781 -16.460938 6.921875 -16.3125 6.734375 -16.125 C 6.546875 -15.9375 6.359375 -15.925781 6.171875 -16.09375 C 5.921875 -16.300781 5.890625 -16.566406 6.078125 -16.890625 C 6.265625 -17.222656 6.445312 -17.46875 6.625 -17.625 C 8.414062 -19.4375 10.570312 -20.507812 13.09375 -20.84375 C 13.832031 -20.957031 14.585938 -20.972656 15.359375 -20.890625 C 16.128906 -20.804688 16.929688 -20.640625 17.765625 -20.390625 C 18.234375 -20.242188 18.726562 -20.117188 19.25 -20.015625 C 19.769531 -19.910156 20.285156 -19.820312 20.796875 -19.75 C 21.472656 -19.664062 22.179688 -19.707031 22.921875 -19.875 C 23.671875 -20.050781 24.335938 -20.328125 24.921875 -20.703125 C 25.035156 -20.742188 25.195312 -20.8125 25.40625 -20.90625 C 25.613281 -21 25.8125 -20.988281 26 -20.875 C 26.1875 -20.707031 26.25 -20.550781 26.1875 -20.40625 C 26.132812 -20.269531 26.023438 -20.125 25.859375 -19.96875 C 25.835938 -19.96875 25.828125 -19.96875 25.828125 -19.96875 C 23.484375 -18.757812 21.203125 -18.429688 18.984375 -18.984375 C 18.890625 -19.015625 18.796875 -19.039062 18.703125 -19.0625 C 18.609375 -19.082031 18.503906 -19.101562 18.390625 -19.125 L 18.359375 -19.125 L 10.40625 -10.125 C 10.726562 -10.03125 11.085938 -9.914062 11.484375 -9.78125 C 11.878906 -9.65625 12.273438 -9.523438 12.671875 -9.390625 C 13.765625 -9.015625 14.9375 -8.648438 16.1875 -8.296875 C 17.445312 -7.953125 18.566406 -7.828125 19.546875 -7.921875 C 20.265625 -7.992188 21.007812 -8.125 21.78125 -8.3125 C 22.550781 -8.5 23.269531 -8.695312 23.9375 -8.90625 C 24.613281 -9.113281 25.164062 -9.296875 25.59375 -9.453125 C 26.03125 -9.617188 26.25 -9.703125 26.25 -9.703125 C 26.53125 -9.816406 26.738281 -9.722656 26.875 -9.421875 Z M 26.875 -9.421875 "/></g></g></g><g fill="#000000" fill-opacity="1"><g transform="translate(105.065187, 218.575326)"><g><path d="M 18.890625 -9.390625 C 19.003906 -9.066406 18.910156 -8.859375 18.609375 -8.765625 C 18.609375 -8.765625 18.445312 -8.703125 18.125 -8.578125 C 17.8125 -8.460938 17.445312 -8.328125 17.03125 -8.171875 C 16.613281 -8.023438 16.238281 -7.894531 15.90625 -7.78125 C 15.582031 -7.664062 15.410156 -7.609375 15.390625 -7.609375 C 13.785156 -7.097656 12.34375 -6.742188 11.0625 -6.546875 C 9.78125 -6.347656 8.640625 -6.25 7.640625 -6.25 C 6.734375 -6.25 5.953125 -6.304688 5.296875 -6.421875 C 4.648438 -6.535156 4.117188 -6.664062 3.703125 -6.8125 L 3.671875 -6.765625 C 3.015625 -6.097656 2.25 -5.515625 1.375 -5.015625 C 0.5 -4.515625 -0.4375 -4.296875 -1.4375 -4.359375 C -1.875 -4.359375 -2.234375 -4.550781 -2.515625 -4.9375 C -2.796875 -5.320312 -2.84375 -5.710938 -2.65625 -6.109375 C -2.351562 -6.804688 -1.941406 -7.425781 -1.421875 -7.96875 C -0.910156 -8.519531 -0.398438 -9.050781 0.109375 -9.5625 C -0.0546875 -10.050781 -0.148438 -10.5625 -0.171875 -11.09375 C -0.191406 -11.632812 -0.0507812 -12.125 0.25 -12.5625 C 0.519531 -13.050781 0.921875 -13.40625 1.453125 -13.625 C 1.992188 -13.851562 2.539062 -13.921875 3.09375 -13.828125 C 3.65625 -13.734375 4.113281 -13.460938 4.46875 -13.015625 C 5.144531 -12.273438 5.445312 -11.382812 5.375 -10.34375 C 5.300781 -9.3125 4.988281 -8.398438 4.4375 -7.609375 C 5.039062 -7.441406 5.867188 -7.320312 6.921875 -7.25 C 7.984375 -7.1875 9.269531 -7.265625 10.78125 -7.484375 C 12.300781 -7.703125 14.0625 -8.160156 16.0625 -8.859375 C 16.125 -8.890625 16.3125 -8.960938 16.625 -9.078125 C 16.945312 -9.191406 17.273438 -9.3125 17.609375 -9.4375 C 17.941406 -9.570312 18.15625 -9.648438 18.25 -9.671875 C 18.53125 -9.785156 18.742188 -9.691406 18.890625 -9.390625 Z M 4.328125 -11.0625 C 4.234375 -11.757812 3.984375 -12.25 3.578125 -12.53125 C 3.171875 -12.8125 2.734375 -12.90625 2.265625 -12.8125 C 1.804688 -12.71875 1.429688 -12.441406 1.140625 -11.984375 C 0.847656 -11.535156 0.757812 -10.925781 0.875 -10.15625 C 1.269531 -10.363281 1.5625 -10.394531 1.75 -10.25 C 1.9375 -10.113281 1.832031 -9.816406 1.4375 -9.359375 C 1.6875 -9.078125 1.960938 -8.816406 2.265625 -8.578125 C 2.566406 -8.347656 2.941406 -8.140625 3.390625 -7.953125 C 3.710938 -8.421875 3.988281 -8.910156 4.21875 -9.421875 C 4.457031 -9.929688 4.492188 -10.476562 4.328125 -11.0625 Z M -1.84375 -5.453125 C -0.988281 -5.285156 -0.175781 -5.394531 0.59375 -5.78125 C 1.363281 -6.164062 2.0625 -6.625 2.6875 -7.15625 C 1.914062 -7.625 1.226562 -8.144531 0.625 -8.71875 C 0.132812 -8.238281 -0.332031 -7.734375 -0.78125 -7.203125 C -1.238281 -6.679688 -1.59375 -6.097656 -1.84375 -5.453125 Z M -1.84375 -5.453125 "/></g></g></g><g fill="#000000" fill-opacity="1"><g transform="translate(123.315699, 218.575326)"><g><path d="M 24.71875 -9.421875 C 24.757812 -9.304688 24.75 -9.179688 24.6875 -9.046875 C 24.632812 -8.921875 24.539062 -8.835938 24.40625 -8.796875 C 24.40625 -8.796875 24.085938 -8.671875 23.453125 -8.421875 C 22.828125 -8.179688 21.988281 -7.875 20.9375 -7.5 C 19.894531 -7.132812 18.734375 -6.753906 17.453125 -6.359375 C 16.710938 -6.117188 15.9375 -5.890625 15.125 -5.671875 C 14.320312 -5.453125 13.613281 -5.257812 13 -5.09375 C 12.382812 -4.9375 11.972656 -4.832031 11.765625 -4.78125 C 10.441406 -4.457031 9.359375 -4.226562 8.515625 -4.09375 C 7.679688 -3.96875 7.019531 -3.90625 6.53125 -3.90625 C 6.0625 -3.90625 5.722656 -3.953125 5.515625 -4.046875 C 5.304688 -4.140625 5.144531 -4.253906 5.03125 -4.390625 C 4.976562 -4.460938 4.9375 -4.566406 4.90625 -4.703125 C 4.875 -4.847656 4.921875 -5.085938 5.046875 -5.421875 C 5.171875 -5.765625 5.425781 -6.234375 5.8125 -6.828125 C 6.195312 -7.421875 6.785156 -8.207031 7.578125 -9.1875 C 6.128906 -8.757812 4.71875 -8.234375 3.34375 -7.609375 C 1.976562 -6.984375 0.570312 -6.472656 -0.875 -6.078125 C -1.15625 -6.046875 -1.46875 -5.992188 -1.8125 -5.921875 C -2.164062 -5.859375 -2.421875 -5.988281 -2.578125 -6.3125 C -2.722656 -6.59375 -2.707031 -6.847656 -2.53125 -7.078125 C -2.351562 -7.316406 -2.1875 -7.53125 -2.03125 -7.71875 C -1.351562 -8.457031 -0.644531 -9.175781 0.09375 -9.875 C 0.84375 -10.570312 1.640625 -11.203125 2.484375 -11.765625 C 2.691406 -11.953125 2.941406 -12 3.234375 -11.90625 C 3.523438 -11.8125 3.585938 -11.585938 3.421875 -11.234375 C 2.554688 -10.609375 1.722656 -9.945312 0.921875 -9.25 C 0.117188 -8.550781 -0.628906 -7.796875 -1.328125 -6.984375 C 0.210938 -7.398438 1.695312 -7.945312 3.125 -8.625 C 4.550781 -9.300781 6.046875 -9.820312 7.609375 -10.1875 C 7.890625 -10.28125 8.203125 -10.300781 8.546875 -10.25 C 8.898438 -10.207031 9.078125 -9.988281 9.078125 -9.59375 C 9.078125 -9.5 9.007812 -9.363281 8.875 -9.1875 C 8.75 -9.019531 8.675781 -8.9375 8.65625 -8.9375 C 8.238281 -8.425781 7.828125 -7.898438 7.421875 -7.359375 C 7.015625 -6.828125 6.671875 -6.34375 6.390625 -5.90625 C 6.109375 -5.476562 5.945312 -5.160156 5.90625 -4.953125 C 6.15625 -4.859375 6.648438 -4.851562 7.390625 -4.9375 C 8.140625 -5.019531 9.039062 -5.175781 10.09375 -5.40625 C 11.15625 -5.644531 12.289062 -5.921875 13.5 -6.234375 C 14.71875 -6.546875 15.90625 -6.890625 17.0625 -7.265625 C 17.0625 -7.265625 17.304688 -7.34375 17.796875 -7.5 C 18.285156 -7.664062 18.894531 -7.875 19.625 -8.125 C 20.363281 -8.382812 21.128906 -8.65625 21.921875 -8.9375 C 22.710938 -9.21875 23.421875 -9.472656 24.046875 -9.703125 C 24.347656 -9.816406 24.570312 -9.722656 24.71875 -9.421875 Z M 24.71875 -9.421875 "/></g></g></g><g fill="#000000" fill-opacity="1"><g transform="translate(147.358905, 218.575326)"><g><path d="M 22.4375 -9.390625 C 22.5625 -9.066406 22.472656 -8.859375 22.171875 -8.765625 C 22.140625 -8.765625 21.835938 -8.660156 21.265625 -8.453125 C 20.703125 -8.242188 19.941406 -7.96875 18.984375 -7.625 C 18.035156 -7.289062 16.960938 -6.921875 15.765625 -6.515625 C 14.566406 -6.109375 13.328125 -5.691406 12.046875 -5.265625 C 12.046875 -5.265625 11.867188 -5.210938 11.515625 -5.109375 C 11.171875 -5.003906 10.722656 -4.875 10.171875 -4.71875 C 9.628906 -4.570312 9.070312 -4.421875 8.5 -4.265625 C 7.925781 -4.117188 7.429688 -4 7.015625 -3.90625 C 6.578125 -3.84375 6.085938 -3.789062 5.546875 -3.75 C 5.015625 -3.71875 4.5625 -3.875 4.1875 -4.21875 C 3.957031 -4.457031 3.875 -4.734375 3.9375 -5.046875 C 4.007812 -5.359375 4.101562 -5.628906 4.21875 -5.859375 C 4.613281 -6.609375 5.082031 -7.289062 5.625 -7.90625 C 6.175781 -8.519531 6.734375 -9.144531 7.296875 -9.78125 C 4.640625 -9.238281 2.101562 -8.316406 -0.3125 -7.015625 C -0.539062 -6.847656 -0.828125 -6.765625 -1.171875 -6.765625 C -1.523438 -6.765625 -1.691406 -6.976562 -1.671875 -7.40625 C -1.140625 -8.46875 -0.453125 -9.421875 0.390625 -10.265625 C 1.242188 -11.117188 2.113281 -11.929688 3 -12.703125 C 3.207031 -12.890625 3.414062 -12.941406 3.625 -12.859375 C 3.832031 -12.773438 3.953125 -12.597656 3.984375 -12.328125 C 3.328125 -11.671875 2.65625 -11.023438 1.96875 -10.390625 C 1.28125 -9.765625 0.644531 -9.082031 0.0625 -8.34375 C 1.28125 -8.925781 2.515625 -9.4375 3.765625 -9.875 C 5.023438 -10.320312 6.316406 -10.625 7.640625 -10.78125 C 8.015625 -10.875 8.296875 -10.75 8.484375 -10.40625 C 8.671875 -10.070312 8.632812 -9.78125 8.375 -9.53125 C 7.769531 -8.757812 7.125 -8.015625 6.4375 -7.296875 C 5.75 -6.578125 5.222656 -5.738281 4.859375 -4.78125 C 5.785156 -4.707031 6.695312 -4.789062 7.59375 -5.03125 C 8.488281 -5.28125 9.378906 -5.523438 10.265625 -5.765625 C 10.492188 -5.828125 10.722656 -5.882812 10.953125 -5.9375 C 11.191406 -6 11.425781 -6.078125 11.65625 -6.171875 C 13.101562 -6.640625 14.679688 -7.164062 16.390625 -7.75 C 18.097656 -8.332031 19.90625 -8.972656 21.8125 -9.671875 C 22.09375 -9.785156 22.300781 -9.691406 22.4375 -9.390625 Z M 22.4375 -9.390625 "/></g></g></g><g fill="#000000" fill-opacity="1"><g transform="translate(169.16878, 218.575326)"><g><path d="M 28.28125 -9.390625 C 28.363281 -9.085938 28.253906 -8.878906 27.953125 -8.765625 C 26.460938 -8.253906 24.925781 -7.671875 23.34375 -7.015625 C 21.769531 -6.359375 20.203125 -5.695312 18.640625 -5.03125 C 16.398438 -4.050781 14.5 -3.265625 12.9375 -2.671875 C 11.382812 -2.078125 10.15625 -1.78125 9.25 -1.78125 C 8.832031 -1.78125 8.503906 -1.835938 8.265625 -1.953125 C 7.753906 -2.160156 7.429688 -2.554688 7.296875 -3.140625 C 6.941406 -4.367188 7.523438 -6.394531 9.046875 -9.21875 C 9.179688 -9.46875 9.316406 -9.71875 9.453125 -9.96875 C 9.597656 -10.226562 9.738281 -10.476562 9.875 -10.71875 C 8.894531 -10.34375 7.875 -9.90625 6.8125 -9.40625 C 5.757812 -8.90625 4.738281 -8.414062 3.75 -7.9375 C 2.757812 -7.457031 1.882812 -7.0625 1.125 -6.75 C 0.375 -6.4375 -0.175781 -6.28125 -0.53125 -6.28125 C -1.039062 -6.332031 -1.328125 -6.59375 -1.390625 -7.0625 C -1.460938 -7.539062 -1.382812 -7.941406 -1.15625 -8.265625 C -0.34375 -9.578125 0.75 -10.65625 2.125 -11.5 C 3.5 -12.351562 4.96875 -12.789062 6.53125 -12.8125 C 7.0625 -12.8125 7.59375 -12.71875 8.125 -12.53125 C 8.664062 -12.34375 9.125 -12.050781 9.5 -11.65625 C 9.75 -11.820312 10.015625 -11.972656 10.296875 -12.109375 C 10.578125 -12.253906 10.796875 -12.460938 10.953125 -12.734375 C 12.398438 -14.804688 13.984375 -16.789062 15.703125 -18.6875 C 17.429688 -20.582031 19.34375 -22.253906 21.4375 -23.703125 C 21.925781 -24.023438 22.46875 -24.332031 23.0625 -24.625 C 23.65625 -24.914062 24.253906 -24.929688 24.859375 -24.671875 C 25.316406 -24.367188 25.550781 -23.929688 25.5625 -23.359375 C 25.582031 -22.796875 25.453125 -22.304688 25.171875 -21.890625 C 24.515625 -20.816406 23.710938 -19.859375 22.765625 -19.015625 C 21.828125 -18.179688 20.859375 -17.394531 19.859375 -16.65625 C 18.578125 -15.695312 17.234375 -14.820312 15.828125 -14.03125 C 14.421875 -13.238281 13.019531 -12.4375 11.625 -11.625 C 11.207031 -10.96875 10.773438 -10.25 10.328125 -9.46875 C 9.890625 -8.695312 9.488281 -7.921875 9.125 -7.140625 C 8.769531 -6.359375 8.503906 -5.640625 8.328125 -4.984375 C 8.148438 -4.335938 8.117188 -3.804688 8.234375 -3.390625 C 8.304688 -3.109375 8.457031 -2.921875 8.6875 -2.828125 C 9.101562 -2.640625 9.804688 -2.691406 10.796875 -2.984375 C 11.785156 -3.273438 12.9375 -3.691406 14.25 -4.234375 C 15.570312 -4.785156 16.90625 -5.351562 18.25 -5.9375 C 19.789062 -6.613281 21.332031 -7.265625 22.875 -7.890625 C 24.425781 -8.515625 26.015625 -9.117188 27.640625 -9.703125 C 27.941406 -9.796875 28.15625 -9.691406 28.28125 -9.390625 Z M 4.859375 -9.453125 C 5.460938 -9.785156 6.082031 -10.078125 6.71875 -10.328125 C 7.351562 -10.585938 7.953125 -10.925781 8.515625 -11.34375 C 7.515625 -11.8125 6.472656 -11.925781 5.390625 -11.6875 C 4.304688 -11.457031 3.320312 -11.0625 2.4375 -10.5 C 1.832031 -10.082031 1.253906 -9.601562 0.703125 -9.0625 C 0.160156 -8.53125 -0.234375 -7.90625 -0.484375 -7.1875 C 0.460938 -7.394531 1.375 -7.722656 2.25 -8.171875 C 3.125 -8.628906 3.992188 -9.054688 4.859375 -9.453125 Z M 22.484375 -23.171875 C 20.523438 -21.921875 18.742188 -20.445312 17.140625 -18.75 C 15.535156 -17.050781 14.035156 -15.269531 12.640625 -13.40625 C 14.429688 -14.332031 16.175781 -15.347656 17.875 -16.453125 C 19.570312 -17.554688 21.140625 -18.820312 22.578125 -20.25 C 23.046875 -20.757812 23.507812 -21.296875 23.96875 -21.859375 C 24.4375 -22.429688 24.640625 -23.09375 24.578125 -23.84375 C 23.765625 -23.84375 23.066406 -23.617188 22.484375 -23.171875 Z M 22.484375 -23.171875 "/></g></g></g><g fill="#000000" fill-opacity="1"><g transform="translate(196.841151, 218.575326)"><g><path d="M 21.53125 -9.390625 C 21.5625 -9.335938 21.578125 -9.253906 21.578125 -9.140625 C 21.523438 -8.953125 21.421875 -8.828125 21.265625 -8.765625 C 21.234375 -8.765625 20.992188 -8.679688 20.546875 -8.515625 C 20.109375 -8.347656 19.519531 -8.140625 18.78125 -7.890625 C 18.195312 -7.679688 17.445312 -7.410156 16.53125 -7.078125 C 15.613281 -6.753906 14.640625 -6.429688 13.609375 -6.109375 C 12.585938 -5.785156 11.597656 -5.515625 10.640625 -5.296875 C 9.691406 -5.085938 8.890625 -4.984375 8.234375 -4.984375 C 7.816406 -4.984375 7.492188 -5.046875 7.265625 -5.171875 C 6.910156 -5.359375 6.710938 -5.632812 6.671875 -6 C 6.640625 -6.28125 6.703125 -6.609375 6.859375 -6.984375 C 7.015625 -7.359375 7.226562 -7.742188 7.5 -8.140625 C 7.5 -8.140625 7.601562 -8.265625 7.8125 -8.515625 C 8.03125 -8.773438 8.269531 -9.0625 8.53125 -9.375 C 8.800781 -9.6875 9.03125 -9.925781 9.21875 -10.09375 C 7.707031 -9.71875 6.234375 -9.273438 4.796875 -8.765625 C 3.367188 -8.253906 1.921875 -7.8125 0.453125 -7.4375 C 0.242188 -7.363281 0.0078125 -7.34375 -0.25 -7.375 C -0.519531 -7.414062 -0.742188 -7.515625 -0.921875 -7.671875 C -1.097656 -7.835938 -1.140625 -8.0625 -1.046875 -8.34375 C -0.765625 -8.96875 -0.351562 -9.492188 0.1875 -9.921875 C 0.738281 -10.359375 1.269531 -10.785156 1.78125 -11.203125 C 2.664062 -11.859375 3.628906 -12.425781 4.671875 -12.90625 C 5.722656 -13.394531 6.804688 -13.503906 7.921875 -13.234375 C 8.390625 -13.140625 8.78125 -12.90625 9.09375 -12.53125 C 9.40625 -12.15625 9.539062 -11.722656 9.5 -11.234375 C 9.59375 -11.234375 9.671875 -11.234375 9.734375 -11.234375 C 9.804688 -11.234375 9.890625 -11.234375 9.984375 -11.234375 C 10.117188 -11.210938 10.335938 -11.171875 10.640625 -11.109375 C 10.941406 -11.054688 11.035156 -10.898438 10.921875 -10.640625 C 10.410156 -9.992188 10.007812 -9.503906 9.71875 -9.171875 C 9.425781 -8.847656 9.09375 -8.503906 8.71875 -8.140625 C 8.375 -7.691406 8.101562 -7.289062 7.90625 -6.9375 C 7.707031 -6.59375 7.617188 -6.328125 7.640625 -6.140625 C 7.640625 -6.097656 7.664062 -6.0625 7.71875 -6.03125 C 7.96875 -5.894531 8.503906 -5.898438 9.328125 -6.046875 C 10.160156 -6.203125 11.144531 -6.4375 12.28125 -6.75 C 13.425781 -7.0625 14.601562 -7.425781 15.8125 -7.84375 C 17.019531 -8.269531 18.132812 -8.679688 19.15625 -9.078125 C 19.15625 -9.078125 19.367188 -9.148438 19.796875 -9.296875 C 20.234375 -9.453125 20.601562 -9.585938 20.90625 -9.703125 C 21.019531 -9.753906 21.144531 -9.75 21.28125 -9.6875 C 21.425781 -9.625 21.507812 -9.523438 21.53125 -9.390625 Z M 8.375 -10.890625 C 8.519531 -11.304688 8.503906 -11.628906 8.328125 -11.859375 C 8.148438 -12.097656 7.882812 -12.242188 7.53125 -12.296875 C 7.1875 -12.359375 6.820312 -12.367188 6.4375 -12.328125 C 6.050781 -12.296875 5.734375 -12.234375 5.484375 -12.140625 C 4.429688 -11.773438 3.453125 -11.253906 2.546875 -10.578125 C 1.640625 -9.898438 0.800781 -9.164062 0.03125 -8.375 C 1.457031 -8.695312 2.847656 -9.101562 4.203125 -9.59375 C 5.566406 -10.082031 6.957031 -10.515625 8.375 -10.890625 Z M 8.375 -10.890625 "/></g></g></g><g fill="#000000" fill-opacity="1"><g transform="translate(217.743745, 218.575326)"><g><path d="M 24.46875 -9.390625 C 24.507812 -9.273438 24.5 -9.148438 24.4375 -9.015625 C 24.382812 -8.890625 24.300781 -8.804688 24.1875 -8.765625 C 24.1875 -8.765625 23.894531 -8.648438 23.3125 -8.421875 C 22.726562 -8.203125 21.945312 -7.925781 20.96875 -7.59375 C 20 -7.257812 18.90625 -6.882812 17.6875 -6.46875 C 16.476562 -6.0625 15.238281 -5.648438 13.96875 -5.234375 C 14.082031 -5.285156 13.910156 -5.242188 13.453125 -5.109375 C 13.003906 -4.984375 12.367188 -4.8125 11.546875 -4.59375 C 10.734375 -4.375 9.800781 -4.144531 8.75 -3.90625 C 7.707031 -3.675781 6.644531 -3.472656 5.5625 -3.296875 C 4.476562 -3.117188 3.441406 -3.019531 2.453125 -3 C 1.472656 -2.976562 0.632812 -3.0625 -0.0625 -3.25 C -0.550781 -3.34375 -0.957031 -3.585938 -1.28125 -3.984375 C -1.613281 -4.378906 -1.769531 -4.820312 -1.75 -5.3125 C -1.695312 -6.125 -1.519531 -6.851562 -1.21875 -7.5 C -0.914062 -8.15625 -0.554688 -8.832031 -0.140625 -9.53125 C 0.460938 -10.53125 1.113281 -11.5 1.8125 -12.4375 C 2.507812 -13.382812 3.242188 -14.300781 4.015625 -15.1875 C 3.359375 -15.164062 2.695312 -15.113281 2.03125 -15.03125 C 1.375 -14.945312 0.707031 -14.867188 0.03125 -14.796875 C 0.03125 -15.054688 0.09375 -15.296875 0.21875 -15.515625 C 0.351562 -15.734375 0.5625 -15.84375 0.84375 -15.84375 C 1.539062 -15.988281 2.238281 -16.078125 2.9375 -16.109375 C 3.632812 -16.140625 4.332031 -16.179688 5.03125 -16.234375 C 5.726562 -16.910156 6.445312 -17.578125 7.1875 -18.234375 C 7.9375 -18.898438 8.773438 -19.421875 9.703125 -19.796875 C 10.054688 -19.929688 10.46875 -19.976562 10.9375 -19.9375 C 11.414062 -19.90625 11.703125 -19.660156 11.796875 -19.203125 C 11.890625 -18.617188 11.757812 -18.085938 11.40625 -17.609375 C 11.0625 -17.128906 10.726562 -16.671875 10.40625 -16.234375 L 14.34375 -16.0625 C 14.664062 -16.007812 14.828125 -15.832031 14.828125 -15.53125 C 14.785156 -15.207031 14.625 -15.046875 14.34375 -15.046875 C 14.34375 -15.046875 14.335938 -15.046875 14.328125 -15.046875 C 14.316406 -15.046875 14.3125 -15.046875 14.3125 -15.046875 L 9.5 -15.28125 L 9.453125 -15.28125 C 8.523438 -14.375 7.546875 -13.519531 6.515625 -12.71875 C 5.492188 -11.914062 4.4375 -11.15625 3.34375 -10.4375 C 2.925781 -10.15625 2.523438 -9.894531 2.140625 -9.65625 C 1.765625 -9.425781 1.332031 -9.175781 0.84375 -8.90625 C 0.84375 -8.90625 0.722656 -8.695312 0.484375 -8.28125 C 0.253906 -7.875 0.015625 -7.40625 -0.234375 -6.875 C -0.492188 -6.34375 -0.660156 -5.878906 -0.734375 -5.484375 C -0.828125 -5.035156 -0.722656 -4.707031 -0.421875 -4.5 C -0.117188 -4.289062 0.273438 -4.15625 0.765625 -4.09375 C 1.253906 -4.039062 1.726562 -4.023438 2.1875 -4.046875 C 2.65625 -4.066406 2.984375 -4.078125 3.171875 -4.078125 C 4.316406 -4.222656 5.382812 -4.375 6.375 -4.53125 C 7.363281 -4.695312 8.378906 -4.894531 9.421875 -5.125 C 10.472656 -5.363281 11.648438 -5.671875 12.953125 -6.046875 C 14.253906 -6.429688 15.785156 -6.914062 17.546875 -7.5 C 19.316406 -8.082031 21.414062 -8.804688 23.84375 -9.671875 C 24.164062 -9.785156 24.375 -9.691406 24.46875 -9.390625 Z M 10.953125 -19.0625 C 10.023438 -18.945312 9.210938 -18.601562 8.515625 -18.03125 C 7.816406 -17.457031 7.144531 -16.878906 6.5 -16.296875 C 6.914062 -16.296875 7.332031 -16.296875 7.75 -16.296875 C 8.164062 -16.296875 8.597656 -16.285156 9.046875 -16.265625 C 9.046875 -16.265625 9.050781 -16.265625 9.0625 -16.265625 C 9.070312 -16.265625 9.078125 -16.273438 9.078125 -16.296875 C 9.472656 -16.691406 9.835938 -17.113281 10.171875 -17.5625 C 10.515625 -18.019531 10.773438 -18.519531 10.953125 -19.0625 Z M 5.453125 -15.25 C 4.773438 -14.53125 4.117188 -13.78125 3.484375 -13 C 2.859375 -12.21875 2.28125 -11.410156 1.75 -10.578125 C 2.863281 -11.273438 3.9375 -12.019531 4.96875 -12.8125 C 6.007812 -13.601562 7.03125 -14.425781 8.03125 -15.28125 C 7.582031 -15.28125 7.148438 -15.273438 6.734375 -15.265625 C 6.316406 -15.253906 5.890625 -15.25 5.453125 -15.25 Z M 5.453125 -15.25 "/></g></g></g><g fill="#000000" fill-opacity="1"><g transform="translate(241.577585, 218.575326)"><g><path d="M 3.765625 -14.0625 C 4.160156 -14.039062 4.351562 -13.90625 4.34375 -13.65625 C 4.332031 -13.414062 4.21875 -13.203125 4 -13.015625 C 3.78125 -12.828125 3.550781 -12.828125 3.3125 -13.015625 C 3.082031 -13.203125 3.046875 -13.410156 3.203125 -13.640625 C 3.367188 -13.878906 3.554688 -14.019531 3.765625 -14.0625 Z M 15.15625 -9.390625 C 15.269531 -9.109375 15.175781 -8.898438 14.875 -8.765625 C 14.875 -8.765625 14.675781 -8.691406 14.28125 -8.546875 C 13.882812 -8.410156 13.40625 -8.25 12.84375 -8.0625 C 12.28125 -7.875 11.710938 -7.679688 11.140625 -7.484375 C 10.578125 -7.285156 10.101562 -7.113281 9.71875 -6.96875 C 9.332031 -6.832031 9.140625 -6.765625 9.140625 -6.765625 C 8.378906 -6.535156 7.457031 -6.265625 6.375 -5.953125 C 5.289062 -5.640625 4.195312 -5.367188 3.09375 -5.140625 C 1.988281 -4.921875 1.015625 -4.8125 0.171875 -4.8125 C -0.242188 -4.8125 -0.695312 -4.882812 -1.1875 -5.03125 C -1.675781 -5.1875 -1.941406 -5.546875 -1.984375 -6.109375 C -2.015625 -6.546875 -1.875 -7.046875 -1.5625 -7.609375 C -1.257812 -8.171875 -0.878906 -8.71875 -0.421875 -9.25 C 0.0234375 -9.78125 0.457031 -10.25 0.875 -10.65625 C 1.289062 -11.070312 1.582031 -11.347656 1.75 -11.484375 C 1.84375 -11.578125 1.953125 -11.625 2.078125 -11.625 C 2.203125 -11.625 2.3125 -11.566406 2.40625 -11.453125 C 2.519531 -11.359375 2.570312 -11.238281 2.5625 -11.09375 C 2.550781 -10.957031 2.488281 -10.84375 2.375 -10.75 C 2.09375 -10.46875 1.722656 -10.09375 1.265625 -9.625 C 0.816406 -9.164062 0.390625 -8.679688 -0.015625 -8.171875 C -0.421875 -7.660156 -0.71875 -7.195312 -0.90625 -6.78125 C -1.09375 -6.375 -1.082031 -6.101562 -0.875 -5.96875 C -0.59375 -5.800781 -0.046875 -5.753906 0.765625 -5.828125 C 1.578125 -5.898438 2.53125 -6.054688 3.625 -6.296875 C 4.71875 -6.546875 5.847656 -6.832031 7.015625 -7.15625 C 8.179688 -7.476562 9.253906 -7.816406 10.234375 -8.171875 C 10.253906 -8.171875 10.515625 -8.253906 11.015625 -8.421875 C 11.515625 -8.597656 12.097656 -8.804688 12.765625 -9.046875 C 13.441406 -9.296875 14.023438 -9.515625 14.515625 -9.703125 C 14.867188 -9.796875 15.082031 -9.691406 15.15625 -9.390625 Z M 15.15625 -9.390625 "/></g></g></g><g fill="#000000" fill-opacity="1"><g transform="translate(256.094241, 218.575326)"><g><path d="M 18.890625 -9.390625 C 19.003906 -9.066406 18.910156 -8.859375 18.609375 -8.765625 C 18.609375 -8.765625 18.445312 -8.703125 18.125 -8.578125 C 17.8125 -8.460938 17.445312 -8.328125 17.03125 -8.171875 C 16.613281 -8.023438 16.238281 -7.894531 15.90625 -7.78125 C 15.582031 -7.664062 15.410156 -7.609375 15.390625 -7.609375 C 13.785156 -7.097656 12.34375 -6.742188 11.0625 -6.546875 C 9.78125 -6.347656 8.640625 -6.25 7.640625 -6.25 C 6.734375 -6.25 5.953125 -6.304688 5.296875 -6.421875 C 4.648438 -6.535156 4.117188 -6.664062 3.703125 -6.8125 L 3.671875 -6.765625 C 3.015625 -6.097656 2.25 -5.515625 1.375 -5.015625 C 0.5 -4.515625 -0.4375 -4.296875 -1.4375 -4.359375 C -1.875 -4.359375 -2.234375 -4.550781 -2.515625 -4.9375 C -2.796875 -5.320312 -2.84375 -5.710938 -2.65625 -6.109375 C -2.351562 -6.804688 -1.941406 -7.425781 -1.421875 -7.96875 C -0.910156 -8.519531 -0.398438 -9.050781 0.109375 -9.5625 C -0.0546875 -10.050781 -0.148438 -10.5625 -0.171875 -11.09375 C -0.191406 -11.632812 -0.0507812 -12.125 0.25 -12.5625 C 0.519531 -13.050781 0.921875 -13.40625 1.453125 -13.625 C 1.992188 -13.851562 2.539062 -13.921875 3.09375 -13.828125 C 3.65625 -13.734375 4.113281 -13.460938 4.46875 -13.015625 C 5.144531 -12.273438 5.445312 -11.382812 5.375 -10.34375 C 5.300781 -9.3125 4.988281 -8.398438 4.4375 -7.609375 C 5.039062 -7.441406 5.867188 -7.320312 6.921875 -7.25 C 7.984375 -7.1875 9.269531 -7.265625 10.78125 -7.484375 C 12.300781 -7.703125 14.0625 -8.160156 16.0625 -8.859375 C 16.125 -8.890625 16.3125 -8.960938 16.625 -9.078125 C 16.945312 -9.191406 17.273438 -9.3125 17.609375 -9.4375 C 17.941406 -9.570312 18.15625 -9.648438 18.25 -9.671875 C 18.53125 -9.785156 18.742188 -9.691406 18.890625 -9.390625 Z M 4.328125 -11.0625 C 4.234375 -11.757812 3.984375 -12.25 3.578125 -12.53125 C 3.171875 -12.8125 2.734375 -12.90625 2.265625 -12.8125 C 1.804688 -12.71875 1.429688 -12.441406 1.140625 -11.984375 C 0.847656 -11.535156 0.757812 -10.925781 0.875 -10.15625 C 1.269531 -10.363281 1.5625 -10.394531 1.75 -10.25 C 1.9375 -10.113281 1.832031 -9.816406 1.4375 -9.359375 C 1.6875 -9.078125 1.960938 -8.816406 2.265625 -8.578125 C 2.566406 -8.347656 2.941406 -8.140625 3.390625 -7.953125 C 3.710938 -8.421875 3.988281 -8.910156 4.21875 -9.421875 C 4.457031 -9.929688 4.492188 -10.476562 4.328125 -11.0625 Z M -1.84375 -5.453125 C -0.988281 -5.285156 -0.175781 -5.394531 0.59375 -5.78125 C 1.363281 -6.164062 2.0625 -6.625 2.6875 -7.15625 C 1.914062 -7.625 1.226562 -8.144531 0.625 -8.71875 C 0.132812 -8.238281 -0.332031 -7.734375 -0.78125 -7.203125 C -1.238281 -6.679688 -1.59375 -6.097656 -1.84375 -5.453125 Z M -1.84375 -5.453125 "/></g></g></g><g fill="#000000" fill-opacity="1"><g transform="translate(274.344753, 218.575326)"><g><path d="M 22.4375 -9.390625 C 22.5625 -9.066406 22.472656 -8.859375 22.171875 -8.765625 C 22.140625 -8.765625 21.835938 -8.660156 21.265625 -8.453125 C 20.703125 -8.242188 19.941406 -7.96875 18.984375 -7.625 C 18.035156 -7.289062 16.960938 -6.921875 15.765625 -6.515625 C 14.566406 -6.109375 13.328125 -5.691406 12.046875 -5.265625 C 12.046875 -5.265625 11.867188 -5.210938 11.515625 -5.109375 C 11.171875 -5.003906 10.722656 -4.875 10.171875 -4.71875 C 9.628906 -4.570312 9.070312 -4.421875 8.5 -4.265625 C 7.925781 -4.117188 7.429688 -4 7.015625 -3.90625 C 6.578125 -3.84375 6.085938 -3.789062 5.546875 -3.75 C 5.015625 -3.71875 4.5625 -3.875 4.1875 -4.21875 C 3.957031 -4.457031 3.875 -4.734375 3.9375 -5.046875 C 4.007812 -5.359375 4.101562 -5.628906 4.21875 -5.859375 C 4.613281 -6.609375 5.082031 -7.289062 5.625 -7.90625 C 6.175781 -8.519531 6.734375 -9.144531 7.296875 -9.78125 C 4.640625 -9.238281 2.101562 -8.316406 -0.3125 -7.015625 C -0.539062 -6.847656 -0.828125 -6.765625 -1.171875 -6.765625 C -1.523438 -6.765625 -1.691406 -6.976562 -1.671875 -7.40625 C -1.140625 -8.46875 -0.453125 -9.421875 0.390625 -10.265625 C 1.242188 -11.117188 2.113281 -11.929688 3 -12.703125 C 3.207031 -12.890625 3.414062 -12.941406 3.625 -12.859375 C 3.832031 -12.773438 3.953125 -12.597656 3.984375 -12.328125 C 3.328125 -11.671875 2.65625 -11.023438 1.96875 -10.390625 C 1.28125 -9.765625 0.644531 -9.082031 0.0625 -8.34375 C 1.28125 -8.925781 2.515625 -9.4375 3.765625 -9.875 C 5.023438 -10.320312 6.316406 -10.625 7.640625 -10.78125 C 8.015625 -10.875 8.296875 -10.75 8.484375 -10.40625 C 8.671875 -10.070312 8.632812 -9.78125 8.375 -9.53125 C 7.769531 -8.757812 7.125 -8.015625 6.4375 -7.296875 C 5.75 -6.578125 5.222656 -5.738281 4.859375 -4.78125 C 5.785156 -4.707031 6.695312 -4.789062 7.59375 -5.03125 C 8.488281 -5.28125 9.378906 -5.523438 10.265625 -5.765625 C 10.492188 -5.828125 10.722656 -5.882812 10.953125 -5.9375 C 11.191406 -6 11.425781 -6.078125 11.65625 -6.171875 C 13.101562 -6.640625 14.679688 -7.164062 16.390625 -7.75 C 18.097656 -8.332031 19.90625 -8.972656 21.8125 -9.671875 C 22.09375 -9.785156 22.300781 -9.691406 22.4375 -9.390625 Z M 22.4375 -9.390625 "/></g></g></g><g fill="#000000" fill-opacity="1"><g transform="translate(19.429209, 177.729206)"><g><path d="M 11.671875 0.40625 C 9.515625 0.40625 7.578125 0.09375 5.859375 -0.53125 C 4.140625 -1.15625 2.800781 -1.8125 1.84375 -2.5 L 1.640625 -8.1875 L 2.09375 -8.265625 C 2.632812 -6.847656 3.347656 -5.53125 4.234375 -4.3125 C 5.117188 -3.101562 6.242188 -2.132812 7.609375 -1.40625 C 8.984375 -0.6875 10.609375 -0.328125 12.484375 -0.328125 C 13.578125 -0.328125 14.585938 -0.550781 15.515625 -1 C 16.441406 -1.445312 17.1875 -2.082031 17.75 -2.90625 C 18.3125 -3.726562 18.59375 -4.6875 18.59375 -5.78125 C 18.59375 -6.8125 18.316406 -7.707031 17.765625 -8.46875 C 17.222656 -9.238281 16.515625 -9.910156 15.640625 -10.484375 C 14.765625 -11.054688 13.84375 -11.550781 12.875 -11.96875 C 11.90625 -12.394531 10.984375 -12.785156 10.109375 -13.140625 C 8.503906 -13.796875 7.109375 -14.457031 5.921875 -15.125 C 4.734375 -15.800781 3.816406 -16.609375 3.171875 -17.546875 C 2.535156 -18.492188 2.21875 -19.6875 2.21875 -21.125 C 2.21875 -22.738281 2.628906 -24.125 3.453125 -25.28125 C 4.285156 -26.445312 5.453125 -27.347656 6.953125 -27.984375 C 8.460938 -28.628906 10.210938 -28.953125 12.203125 -28.953125 C 14.054688 -28.953125 15.648438 -28.742188 16.984375 -28.328125 C 18.328125 -27.921875 19.394531 -27.5 20.1875 -27.0625 L 20.359375 -22.3125 L 19.9375 -22.203125 C 19.175781 -23.972656 18.066406 -25.429688 16.609375 -26.578125 C 15.148438 -27.722656 13.242188 -28.296875 10.890625 -28.296875 C 9.796875 -28.296875 8.773438 -28.082031 7.828125 -27.65625 C 6.890625 -27.238281 6.140625 -26.632812 5.578125 -25.84375 C 5.023438 -25.050781 4.75 -24.066406 4.75 -22.890625 C 4.75 -21.929688 4.976562 -21.097656 5.4375 -20.390625 C 5.90625 -19.679688 6.519531 -19.066406 7.28125 -18.546875 C 8.050781 -18.035156 8.882812 -17.582031 9.78125 -17.1875 C 10.6875 -16.789062 11.578125 -16.410156 12.453125 -16.046875 C 13.984375 -15.453125 15.414062 -14.8125 16.75 -14.125 C 18.082031 -13.445312 19.164062 -12.613281 20 -11.625 C 20.832031 -10.644531 21.25 -9.378906 21.25 -7.828125 C 21.25 -6.128906 20.785156 -4.660156 19.859375 -3.421875 C 18.929688 -2.179688 17.738281 -1.234375 16.28125 -0.578125 C 14.820312 0.078125 13.285156 0.40625 11.671875 0.40625 Z M 11.671875 0.40625 "/></g></g></g><g fill="#000000" fill-opacity="1"><g transform="translate(49.401827, 177.729206)"><g><path d="M -0.703125 0 L -0.703125 -0.53125 C -0.128906 -0.71875 0.425781 -1.09375 0.96875 -1.65625 C 1.519531 -2.21875 2.113281 -3.273438 2.75 -4.828125 L 10.8125 -24.8125 C 11.0625 -25.46875 11.035156 -26.113281 10.734375 -26.75 L 10.359375 -27.609375 L 13.4375 -29 L 23.5 -4.796875 C 24.132812 -3.265625 24.703125 -2.21875 25.203125 -1.65625 C 25.710938 -1.09375 26.1875 -0.71875 26.625 -0.53125 L 26.625 0 L 20.265625 0 L 20.265625 -0.53125 C 20.898438 -0.71875 21.160156 -1.09375 21.046875 -1.65625 C 20.941406 -2.21875 20.5625 -3.265625 19.90625 -4.796875 L 17.40625 -10.8125 L 5.859375 -10.8125 L 3.4375 -4.828125 C 2.40625 -2.234375 2.570312 -0.800781 3.9375 -0.53125 L 3.9375 0 Z M 6.109375 -11.421875 L 17.15625 -11.421875 L 11.546875 -24.90625 Z M 6.109375 -11.421875 "/></g></g></g><g fill="#000000" fill-opacity="1"><g transform="translate(83.059197, 177.729206)"><g><path d="M 22.9375 0.28125 C 21.894531 0.28125 21.070312 0.03125 20.46875 -0.46875 C 19.875 -0.976562 19.347656 -1.71875 18.890625 -2.6875 C 18.441406 -3.65625 17.921875 -4.847656 17.328125 -6.265625 C 16.722656 -7.679688 16.210938 -8.921875 15.796875 -9.984375 C 15.390625 -11.054688 14.945312 -11.945312 14.46875 -12.65625 C 14 -13.363281 13.394531 -13.894531 12.65625 -14.25 C 11.914062 -14.601562 10.929688 -14.78125 9.703125 -14.78125 L 7.078125 -14.78125 L 7.078125 -5.203125 C 7.078125 -3.535156 7.191406 -2.382812 7.421875 -1.75 C 7.660156 -1.125 8.09375 -0.71875 8.71875 -0.53125 L 8.71875 0 L 2.09375 0 L 2.09375 -0.53125 C 2.71875 -0.71875 3.144531 -1.125 3.375 -1.75 C 3.613281 -2.382812 3.734375 -3.535156 3.734375 -5.203125 L 3.734375 -23.46875 C 3.734375 -25.15625 3.613281 -26.304688 3.375 -26.921875 C 3.144531 -27.535156 2.71875 -27.941406 2.09375 -28.140625 L 2.09375 -28.671875 L 10.15625 -28.671875 C 12.9375 -28.671875 15.101562 -28.390625 16.65625 -27.828125 C 18.21875 -27.265625 19.316406 -26.503906 19.953125 -25.546875 C 20.597656 -24.597656 20.921875 -23.507812 20.921875 -22.28125 C 20.921875 -20.363281 20.238281 -18.726562 18.875 -17.375 C 17.507812 -16.03125 15.488281 -15.207031 12.8125 -14.90625 C 14.070312 -14.738281 15.097656 -14.457031 15.890625 -14.0625 C 16.679688 -13.664062 17.335938 -13.132812 17.859375 -12.46875 C 18.378906 -11.800781 18.84375 -10.988281 19.25 -10.03125 C 19.65625 -9.070312 20.101562 -7.96875 20.59375 -6.71875 C 21.25 -5.082031 21.800781 -3.8125 22.25 -2.90625 C 22.707031 -2.007812 23.125 -1.375 23.5 -1 C 23.882812 -0.632812 24.3125 -0.453125 24.78125 -0.453125 C 24.914062 -0.453125 25.03125 -0.453125 25.125 -0.453125 C 25.21875 -0.453125 25.320312 -0.460938 25.4375 -0.484375 L 25.4375 0 C 25.132812 0.101562 24.742188 0.175781 24.265625 0.21875 C 23.785156 0.257812 23.34375 0.28125 22.9375 0.28125 Z M 7.078125 -15.390625 L 10.53125 -15.390625 C 12.875 -15.390625 14.613281 -15.941406 15.75 -17.046875 C 16.882812 -18.160156 17.453125 -19.59375 17.453125 -21.34375 C 17.453125 -22.5625 17.171875 -23.675781 16.609375 -24.6875 C 16.046875 -25.695312 15.144531 -26.507812 13.90625 -27.125 C 12.664062 -27.738281 11.035156 -28.046875 9.015625 -28.046875 C 8.710938 -28.046875 8.394531 -28.039062 8.0625 -28.03125 C 7.738281 -28.019531 7.410156 -28 7.078125 -27.96875 Z M 7.078125 -15.390625 "/></g></g></g><g fill="#000000" fill-opacity="1"><g transform="translate(115.529261, 177.729206)"><g><path d="M -0.703125 0 L -0.703125 -0.53125 C -0.128906 -0.71875 0.425781 -1.09375 0.96875 -1.65625 C 1.519531 -2.21875 2.113281 -3.273438 2.75 -4.828125 L 10.8125 -24.8125 C 11.0625 -25.46875 11.035156 -26.113281 10.734375 -26.75 L 10.359375 -27.609375 L 13.4375 -29 L 23.5 -4.796875 C 24.132812 -3.265625 24.703125 -2.21875 25.203125 -1.65625 C 25.710938 -1.09375 26.1875 -0.71875 26.625 -0.53125 L 26.625 0 L 20.265625 0 L 20.265625 -0.53125 C 20.898438 -0.71875 21.160156 -1.09375 21.046875 -1.65625 C 20.941406 -2.21875 20.5625 -3.265625 19.90625 -4.796875 L 17.40625 -10.8125 L 5.859375 -10.8125 L 3.4375 -4.828125 C 2.40625 -2.234375 2.570312 -0.800781 3.9375 -0.53125 L 3.9375 0 Z M 6.109375 -11.421875 L 17.15625 -11.421875 L 11.546875 -24.90625 Z M 6.109375 -11.421875 "/></g></g></g><g fill="#000000" fill-opacity="1"><g transform="translate(149.186631, 177.729206)"><g/></g></g><g fill="#000000" fill-opacity="1"><g transform="translate(165.198089, 177.729206)"><g><path d="M 11.671875 0.40625 C 9.515625 0.40625 7.578125 0.09375 5.859375 -0.53125 C 4.140625 -1.15625 2.800781 -1.8125 1.84375 -2.5 L 1.640625 -8.1875 L 2.09375 -8.265625 C 2.632812 -6.847656 3.347656 -5.53125 4.234375 -4.3125 C 5.117188 -3.101562 6.242188 -2.132812 7.609375 -1.40625 C 8.984375 -0.6875 10.609375 -0.328125 12.484375 -0.328125 C 13.578125 -0.328125 14.585938 -0.550781 15.515625 -1 C 16.441406 -1.445312 17.1875 -2.082031 17.75 -2.90625 C 18.3125 -3.726562 18.59375 -4.6875 18.59375 -5.78125 C 18.59375 -6.8125 18.316406 -7.707031 17.765625 -8.46875 C 17.222656 -9.238281 16.515625 -9.910156 15.640625 -10.484375 C 14.765625 -11.054688 13.84375 -11.550781 12.875 -11.96875 C 11.90625 -12.394531 10.984375 -12.785156 10.109375 -13.140625 C 8.503906 -13.796875 7.109375 -14.457031 5.921875 -15.125 C 4.734375 -15.800781 3.816406 -16.609375 3.171875 -17.546875 C 2.535156 -18.492188 2.21875 -19.6875 2.21875 -21.125 C 2.21875 -22.738281 2.628906 -24.125 3.453125 -25.28125 C 4.285156 -26.445312 5.453125 -27.347656 6.953125 -27.984375 C 8.460938 -28.628906 10.210938 -28.953125 12.203125 -28.953125 C 14.054688 -28.953125 15.648438 -28.742188 16.984375 -28.328125 C 18.328125 -27.921875 19.394531 -27.5 20.1875 -27.0625 L 20.359375 -22.3125 L 19.9375 -22.203125 C 19.175781 -23.972656 18.066406 -25.429688 16.609375 -26.578125 C 15.148438 -27.722656 13.242188 -28.296875 10.890625 -28.296875 C 9.796875 -28.296875 8.773438 -28.082031 7.828125 -27.65625 C 6.890625 -27.238281 6.140625 -26.632812 5.578125 -25.84375 C 5.023438 -25.050781 4.75 -24.066406 4.75 -22.890625 C 4.75 -21.929688 4.976562 -21.097656 5.4375 -20.390625 C 5.90625 -19.679688 6.519531 -19.066406 7.28125 -18.546875 C 8.050781 -18.035156 8.882812 -17.582031 9.78125 -17.1875 C 10.6875 -16.789062 11.578125 -16.410156 12.453125 -16.046875 C 13.984375 -15.453125 15.414062 -14.8125 16.75 -14.125 C 18.082031 -13.445312 19.164062 -12.613281 20 -11.625 C 20.832031 -10.644531 21.25 -9.378906 21.25 -7.828125 C 21.25 -6.128906 20.785156 -4.660156 19.859375 -3.421875 C 18.929688 -2.179688 17.738281 -1.234375 16.28125 -0.578125 C 14.820312 0.078125 13.285156 0.40625 11.671875 0.40625 Z M 11.671875 0.40625 "/></g></g></g><g fill="#000000" fill-opacity="1"><g transform="translate(195.170706, 177.729206)"><g><path d="M -0.703125 0 L -0.703125 -0.53125 C -0.128906 -0.71875 0.425781 -1.09375 0.96875 -1.65625 C 1.519531 -2.21875 2.113281 -3.273438 2.75 -4.828125 L 10.8125 -24.8125 C 11.0625 -25.46875 11.035156 -26.113281 10.734375 -26.75 L 10.359375 -27.609375 L 13.4375 -29 L 23.5 -4.796875 C 24.132812 -3.265625 24.703125 -2.21875 25.203125 -1.65625 C 25.710938 -1.09375 26.1875 -0.71875 26.625 -0.53125 L 26.625 0 L 20.265625 0 L 20.265625 -0.53125 C 20.898438 -0.71875 21.160156 -1.09375 21.046875 -1.65625 C 20.941406 -2.21875 20.5625 -3.265625 19.90625 -4.796875 L 17.40625 -10.8125 L 5.859375 -10.8125 L 3.4375 -4.828125 C 2.40625 -2.234375 2.570312 -0.800781 3.9375 -0.53125 L 3.9375 0 Z M 6.109375 -11.421875 L 17.15625 -11.421875 L 11.546875 -24.90625 Z M 6.109375 -11.421875 "/></g></g></g><g fill="#000000" fill-opacity="1"><g transform="translate(228.828077, 177.729206)"><g><path d="M 2.09375 0 L 2.09375 -0.53125 C 2.71875 -0.71875 3.144531 -1.125 3.375 -1.75 C 3.613281 -2.382812 3.734375 -3.535156 3.734375 -5.203125 L 3.734375 -23.46875 C 3.734375 -25.15625 3.613281 -26.304688 3.375 -26.921875 C 3.144531 -27.535156 2.71875 -27.941406 2.09375 -28.140625 L 2.09375 -28.671875 L 8.71875 -28.671875 L 8.71875 -28.140625 C 8.09375 -27.941406 7.660156 -27.535156 7.421875 -26.921875 C 7.191406 -26.304688 7.078125 -25.15625 7.078125 -23.46875 L 7.078125 -2.5 C 7.078125 -1.269531 7.691406 -0.65625 8.921875 -0.65625 L 13.796875 -0.65625 C 15.765625 -0.65625 17.273438 -0.945312 18.328125 -1.53125 C 19.378906 -2.125 20.257812 -3.179688 20.96875 -4.703125 L 21.421875 -4.625 L 21.125 0 Z M 2.09375 0 "/></g></g></g><g fill="#000000" fill-opacity="1"><g transform="translate(258.473159, 177.729206)"><g><path d="M 2.09375 0 L 2.09375 -0.53125 C 2.71875 -0.71875 3.144531 -1.125 3.375 -1.75 C 3.613281 -2.382812 3.734375 -3.535156 3.734375 -5.203125 L 3.734375 -23.46875 C 3.734375 -25.15625 3.613281 -26.304688 3.375 -26.921875 C 3.144531 -27.535156 2.71875 -27.941406 2.09375 -28.140625 L 2.09375 -28.671875 L 21.125 -28.671875 L 21.578125 -23.34375 L 21.125 -23.21875 C 20.414062 -25.019531 19.425781 -26.273438 18.15625 -26.984375 C 16.894531 -27.691406 15.210938 -28.046875 13.109375 -28.046875 L 7.078125 -28.046875 L 7.078125 -15.640625 L 12.328125 -15.640625 C 13.878906 -15.640625 15.082031 -15.742188 15.9375 -15.953125 C 16.800781 -16.160156 17.429688 -16.472656 17.828125 -16.890625 C 18.222656 -17.316406 18.503906 -17.828125 18.671875 -18.421875 L 19.171875 -18.421875 L 19.171875 -12.25 L 18.671875 -12.25 C 18.503906 -12.875 18.222656 -13.390625 17.828125 -13.796875 C 17.429688 -14.210938 16.800781 -14.519531 15.9375 -14.71875 C 15.082031 -14.925781 13.878906 -15.03125 12.328125 -15.03125 L 7.078125 -15.03125 L 7.078125 -2.453125 C 7.078125 -1.222656 7.691406 -0.609375 8.921875 -0.609375 L 14.25 -0.609375 C 16.21875 -0.609375 17.84375 -0.945312 19.125 -1.625 C 20.40625 -2.3125 21.414062 -3.613281 22.15625 -5.53125 L 22.609375 -5.453125 L 22.28125 0 Z M 2.09375 0 "/></g></g></g><g fill="#000000" fill-opacity="1"><g transform="translate(290.001555, 177.729206)"><g><path d="M 2.09375 0 L 2.09375 -0.53125 C 2.71875 -0.71875 3.144531 -1.125 3.375 -1.75 C 3.613281 -2.382812 3.734375 -3.535156 3.734375 -5.203125 L 3.734375 -23.46875 C 3.734375 -25.15625 3.613281 -26.304688 3.375 -26.921875 C 3.144531 -27.535156 2.71875 -27.941406 2.09375 -28.140625 L 2.09375 -28.671875 L 21.125 -28.671875 L 21.578125 -23.34375 L 21.125 -23.21875 C 20.414062 -25.019531 19.425781 -26.273438 18.15625 -26.984375 C 16.894531 -27.691406 15.210938 -28.046875 13.109375 -28.046875 L 7.078125 -28.046875 L 7.078125 -15.640625 L 12.328125 -15.640625 C 13.878906 -15.640625 15.082031 -15.742188 15.9375 -15.953125 C 16.800781 -16.160156 17.429688 -16.472656 17.828125 -16.890625 C 18.222656 -17.316406 18.503906 -17.828125 18.671875 -18.421875 L 19.171875 -18.421875 L 19.171875 -12.25 L 18.671875 -12.25 C 18.503906 -12.875 18.222656 -13.390625 17.828125 -13.796875 C 17.429688 -14.210938 16.800781 -14.519531 15.9375 -14.71875 C 15.082031 -14.925781 13.878906 -15.03125 12.328125 -15.03125 L 7.078125 -15.03125 L 7.078125 -2.453125 C 7.078125 -1.222656 7.691406 -0.609375 8.921875 -0.609375 L 14.25 -0.609375 C 16.21875 -0.609375 17.84375 -0.945312 19.125 -1.625 C 20.40625 -2.3125 21.414062 -3.613281 22.15625 -5.53125 L 22.609375 -5.453125 L 22.28125 0 Z M 2.09375 0 "/></g></g></g><g fill="#000000" fill-opacity="1"><g transform="translate(321.529951, 177.729206)"><g><path d="M 2.046875 0 L 2.046875 -0.53125 C 2.671875 -0.71875 3.097656 -1.125 3.328125 -1.75 C 3.566406 -2.382812 3.6875 -3.535156 3.6875 -5.203125 L 3.6875 -21.828125 C 3.6875 -23.378906 3.585938 -24.585938 3.390625 -25.453125 C 3.203125 -26.316406 2.921875 -26.9375 2.546875 -27.3125 C 2.179688 -27.695312 1.726562 -27.972656 1.1875 -28.140625 L 1.1875 -28.671875 L 6.140625 -28.671875 L 16.828125 -11.015625 L 27.3125 -28.671875 L 31.9375 -28.671875 L 31.9375 -28.140625 C 31.394531 -27.972656 30.9375 -27.695312 30.5625 -27.3125 C 30.195312 -26.9375 29.921875 -26.316406 29.734375 -25.453125 C 29.546875 -24.585938 29.453125 -23.378906 29.453125 -21.828125 L 29.453125 -5.203125 C 29.453125 -3.535156 29.566406 -2.382812 29.796875 -1.75 C 30.023438 -1.125 30.453125 -0.71875 31.078125 -0.53125 L 31.078125 0 L 24.453125 0 L 24.453125 -0.53125 C 25.078125 -0.71875 25.503906 -1.125 25.734375 -1.75 C 25.972656 -2.382812 26.09375 -3.535156 26.09375 -5.203125 L 26.09375 -25.34375 L 15.6875 -7.78125 L 14.90625 -7.78125 L 4.421875 -25.015625 L 4.421875 -6.84375 C 4.421875 -5.28125 4.53125 -4.078125 4.75 -3.234375 C 4.96875 -2.390625 5.28125 -1.769531 5.6875 -1.375 C 6.101562 -0.976562 6.609375 -0.695312 7.203125 -0.53125 L 7.203125 0 Z M 2.046875 0 "/></g></g></g></svg>